<svg width="191" height="30" viewBox="0 0 191 30" fill="none" xmlns="http://www.w3.org/2000/svg">
<path d="M67 0H186C188.761 0 191 2.23858 191 5V25C191 27.7614 188.761 30 186 30H67V0Z" fill="#59595D" fill-opacity="0.6"/>
<path d="M0 5C0 2.23858 2.23858 0 5 0H67V30H5C2.23858 30 0 27.7614 0 25V5Z" fill="#555555"/>
<path d="M0 5C0 2.23858 2.23858 0 5 0H186C188.761 0 191 2.23858 191 5V25C191 27.7614 188.761 30 186 30H5C2.23857 30 0 27.7614 0 25V5Z" fill="url(#paint0_linear)"/>
<path d="M87.1953 10.5781V17.9688C87.1953 19.2708 86.8021 20.2943 86.0156 21.0391C85.2292 21.7839 84.1484 22.1562 82.7734 22.1562C81.3984 22.1562 80.3333 21.7812 79.5781 21.0312C78.8281 20.2812 78.4531 19.25 78.4531 17.9375V10.5781H79.7812V18.0312C79.7812 18.9844 80.0417 19.7161 80.5625 20.2266C81.0833 20.737 81.849 20.9922 82.8594 20.9922C83.8229 20.9922 84.5651 20.737 85.0859 20.2266C85.6068 19.7109 85.8672 18.974 85.8672 18.0156V10.5781H87.1953ZM95.8906 22V16.4609C95.8906 15.763 95.7318 15.2422 95.4141 14.8984C95.0964 14.5547 94.599 14.3828 93.9219 14.3828C93.026 14.3828 92.3698 14.625 91.9531 15.1094C91.5365 15.5938 91.3281 16.3932 91.3281 17.5078V22H90.0312V13.4375H91.0859L91.2969 14.6094H91.3594C91.625 14.1875 91.9974 13.862 92.4766 13.6328C92.9557 13.3984 93.4896 13.2812 94.0781 13.2812C95.1094 13.2812 95.8854 13.5312 96.4062 14.0312C96.9271 14.526 97.1875 15.3203 97.1875 16.4141V22H95.8906ZM105.688 20.8516H105.617C105.018 21.7214 104.122 22.1562 102.93 22.1562C101.81 22.1562 100.938 21.7734 100.312 21.0078C99.6927 20.2422 99.3828 19.1536 99.3828 17.7422C99.3828 16.3307 99.6953 15.2344 100.32 14.4531C100.945 13.6719 101.815 13.2812 102.93 13.2812C104.091 13.2812 104.982 13.7031 105.602 14.5469H105.703L105.648 13.9297L105.617 13.3281V9.84375H106.914V22H105.859L105.688 20.8516ZM103.094 21.0703C103.979 21.0703 104.62 20.8307 105.016 20.3516C105.417 19.8672 105.617 19.0885 105.617 18.0156V17.7422C105.617 16.5286 105.414 15.6641 105.008 15.1484C104.607 14.6276 103.964 14.3672 103.078 14.3672C102.318 14.3672 101.734 14.6641 101.328 15.2578C100.927 15.8464 100.727 16.6797 100.727 17.7578C100.727 18.8516 100.927 19.6771 101.328 20.2344C101.729 20.7917 102.318 21.0703 103.094 21.0703ZM113.289 22.1562C112.023 22.1562 111.023 21.7708 110.289 21C109.56 20.2292 109.195 19.1589 109.195 17.7891C109.195 16.4089 109.534 15.3125 110.211 14.5C110.893 13.6875 111.807 13.2812 112.953 13.2812C114.026 13.2812 114.875 13.6354 115.5 14.3438C116.125 15.0469 116.438 15.9766 116.438 17.1328V17.9531H110.539C110.565 18.9583 110.818 19.7214 111.297 20.2422C111.781 20.763 112.461 21.0234 113.336 21.0234C114.258 21.0234 115.169 20.8307 116.07 20.4453V21.6016C115.612 21.7995 115.177 21.9401 114.766 22.0234C114.359 22.112 113.867 22.1562 113.289 22.1562ZM112.938 14.3672C112.25 14.3672 111.701 14.5911 111.289 15.0391C110.883 15.487 110.643 16.1068 110.57 16.8984H115.047C115.047 16.0807 114.865 15.4557 114.5 15.0234C114.135 14.5859 113.615 14.3672 112.938 14.3672ZM122.562 13.2812C122.943 13.2812 123.284 13.3125 123.586 13.375L123.406 14.5781C123.052 14.5 122.74 14.4609 122.469 14.4609C121.776 14.4609 121.182 14.7422 120.688 15.3047C120.198 15.8672 119.953 16.5677 119.953 17.4062V22H118.656V13.4375H119.727L119.875 15.0234H119.938C120.255 14.4661 120.638 14.0365 121.086 13.7344C121.534 13.4323 122.026 13.2812 122.562 13.2812ZM130.867 17.25V22H129.539V10.5781H132.672C134.073 10.5781 135.107 10.8464 135.773 11.3828C136.445 11.9193 136.781 12.7266 136.781 13.8047C136.781 15.3151 136.016 16.3359 134.484 16.8672L137.586 22H136.016L133.25 17.25H130.867ZM130.867 16.1094H132.688C133.625 16.1094 134.312 15.9245 134.75 15.5547C135.188 15.1797 135.406 14.6198 135.406 13.875C135.406 13.1198 135.182 12.5755 134.734 12.2422C134.292 11.9089 133.578 11.7422 132.594 11.7422H130.867V16.1094ZM142.852 22.1562C141.586 22.1562 140.586 21.7708 139.852 21C139.122 20.2292 138.758 19.1589 138.758 17.7891C138.758 16.4089 139.096 15.3125 139.773 14.5C140.456 13.6875 141.37 13.2812 142.516 13.2812C143.589 13.2812 144.438 13.6354 145.062 14.3438C145.688 15.0469 146 15.9766 146 17.1328V17.9531H140.102C140.128 18.9583 140.38 19.7214 140.859 20.2422C141.344 20.763 142.023 21.0234 142.898 21.0234C143.82 21.0234 144.732 20.8307 145.633 20.4453V21.6016C145.174 21.7995 144.74 21.9401 144.328 22.0234C143.922 22.112 143.43 22.1562 142.852 22.1562ZM142.5 14.3672C141.812 14.3672 141.263 14.5911 140.852 15.0391C140.445 15.487 140.206 16.1068 140.133 16.8984H144.609C144.609 16.0807 144.427 15.4557 144.062 15.0234C143.698 14.5859 143.177 14.3672 142.5 14.3672ZM150.094 22L146.844 13.4375H148.234L150.078 18.5156C150.495 19.7031 150.74 20.474 150.812 20.8281H150.875C150.932 20.5521 151.112 19.9818 151.414 19.1172C151.721 18.2474 152.406 16.3542 153.469 13.4375H154.859L151.609 22H150.094ZM157.531 22H156.234V13.4375H157.531V22ZM156.125 11.1172C156.125 10.8203 156.198 10.6042 156.344 10.4688C156.49 10.3281 156.672 10.2578 156.891 10.2578C157.099 10.2578 157.279 10.3281 157.43 10.4688C157.581 10.6094 157.656 10.8255 157.656 11.1172C157.656 11.4089 157.581 11.6276 157.43 11.7734C157.279 11.9141 157.099 11.9844 156.891 11.9844C156.672 11.9844 156.49 11.9141 156.344 11.7734C156.198 11.6276 156.125 11.4089 156.125 11.1172ZM163.898 22.1562C162.633 22.1562 161.633 21.7708 160.898 21C160.169 20.2292 159.805 19.1589 159.805 17.7891C159.805 16.4089 160.143 15.3125 160.82 14.5C161.503 13.6875 162.417 13.2812 163.562 13.2812C164.635 13.2812 165.484 13.6354 166.109 14.3438C166.734 15.0469 167.047 15.9766 167.047 17.1328V17.9531H161.148C161.174 18.9583 161.427 19.7214 161.906 20.2422C162.391 20.763 163.07 21.0234 163.945 21.0234C164.867 21.0234 165.779 20.8307 166.68 20.4453V21.6016C166.221 21.7995 165.786 21.9401 165.375 22.0234C164.969 22.112 164.477 22.1562 163.898 22.1562ZM163.547 14.3672C162.859 14.3672 162.31 14.5911 161.898 15.0391C161.492 15.487 161.253 16.1068 161.18 16.8984H165.656C165.656 16.0807 165.474 15.4557 165.109 15.0234C164.745 14.5859 164.224 14.3672 163.547 14.3672ZM176.258 22L174.688 16.9766C174.589 16.6693 174.404 15.9714 174.133 14.8828H174.07C173.862 15.7943 173.68 16.4974 173.523 16.9922L171.906 22H170.406L168.07 13.4375H169.43C169.982 15.5885 170.401 17.2266 170.688 18.3516C170.979 19.4766 171.146 20.2344 171.188 20.625H171.25C171.307 20.3281 171.398 19.9453 171.523 19.4766C171.654 19.0026 171.766 18.6276 171.859 18.3516L173.43 13.4375H174.836L176.367 18.3516C176.659 19.2474 176.857 20 176.961 20.6094H177.023C177.044 20.4219 177.099 20.1328 177.188 19.7422C177.281 19.3516 177.826 17.25 178.82 13.4375H180.164L177.797 22H176.258Z" fill="#010101" fill-opacity="0.3"/>
<path d="M87.1953 9.57812V16.9688C87.1953 18.2708 86.8021 19.2943 86.0156 20.0391C85.2292 20.7839 84.1484 21.1562 82.7734 21.1562C81.3984 21.1562 80.3333 20.7812 79.5781 20.0312C78.8281 19.2812 78.4531 18.25 78.4531 16.9375V9.57812H79.7812V17.0312C79.7812 17.9844 80.0417 18.7161 80.5625 19.2266C81.0833 19.737 81.849 19.9922 82.8594 19.9922C83.8229 19.9922 84.5651 19.737 85.0859 19.2266C85.6068 18.7109 85.8672 17.974 85.8672 17.0156V9.57812H87.1953ZM95.8906 21V15.4609C95.8906 14.763 95.7318 14.2422 95.4141 13.8984C95.0964 13.5547 94.599 13.3828 93.9219 13.3828C93.026 13.3828 92.3698 13.625 91.9531 14.1094C91.5365 14.5938 91.3281 15.3932 91.3281 16.5078V21H90.0312V12.4375H91.0859L91.2969 13.6094H91.3594C91.625 13.1875 91.9974 12.862 92.4766 12.6328C92.9557 12.3984 93.4896 12.2812 94.0781 12.2812C95.1094 12.2812 95.8854 12.5312 96.4062 13.0312C96.9271 13.526 97.1875 14.3203 97.1875 15.4141V21H95.8906ZM105.688 19.8516H105.617C105.018 20.7214 104.122 21.1562 102.93 21.1562C101.81 21.1562 100.938 20.7734 100.312 20.0078C99.6927 19.2422 99.3828 18.1536 99.3828 16.7422C99.3828 15.3307 99.6953 14.2344 100.32 13.4531C100.945 12.6719 101.815 12.2812 102.93 12.2812C104.091 12.2812 104.982 12.7031 105.602 13.5469H105.703L105.648 12.9297L105.617 12.3281V8.84375H106.914V21H105.859L105.688 19.8516ZM103.094 20.0703C103.979 20.0703 104.62 19.8307 105.016 19.3516C105.417 18.8672 105.617 18.0885 105.617 17.0156V16.7422C105.617 15.5286 105.414 14.6641 105.008 14.1484C104.607 13.6276 103.964 13.3672 103.078 13.3672C102.318 13.3672 101.734 13.6641 101.328 14.2578C100.927 14.8464 100.727 15.6797 100.727 16.7578C100.727 17.8516 100.927 18.6771 101.328 19.2344C101.729 19.7917 102.318 20.0703 103.094 20.0703ZM113.289 21.1562C112.023 21.1562 111.023 20.7708 110.289 20C109.56 19.2292 109.195 18.1589 109.195 16.7891C109.195 15.4089 109.534 14.3125 110.211 13.5C110.893 12.6875 111.807 12.2812 112.953 12.2812C114.026 12.2812 114.875 12.6354 115.5 13.3438C116.125 14.0469 116.438 14.9766 116.438 16.1328V16.9531H110.539C110.565 17.9583 110.818 18.7214 111.297 19.2422C111.781 19.763 112.461 20.0234 113.336 20.0234C114.258 20.0234 115.169 19.8307 116.07 19.4453V20.6016C115.612 20.7995 115.177 20.9401 114.766 21.0234C114.359 21.112 113.867 21.1562 113.289 21.1562ZM112.938 13.3672C112.25 13.3672 111.701 13.5911 111.289 14.0391C110.883 14.487 110.643 15.1068 110.57 15.8984H115.047C115.047 15.0807 114.865 14.4557 114.5 14.0234C114.135 13.5859 113.615 13.3672 112.938 13.3672ZM122.562 12.2812C122.943 12.2812 123.284 12.3125 123.586 12.375L123.406 13.5781C123.052 13.5 122.74 13.4609 122.469 13.4609C121.776 13.4609 121.182 13.7422 120.688 14.3047C120.198 14.8672 119.953 15.5677 119.953 16.4062V21H118.656V12.4375H119.727L119.875 14.0234H119.938C120.255 13.4661 120.638 13.0365 121.086 12.7344C121.534 12.4323 122.026 12.2812 122.562 12.2812ZM130.867 16.25V21H129.539V9.57812H132.672C134.073 9.57812 135.107 9.84635 135.773 10.3828C136.445 10.9193 136.781 11.7266 136.781 12.8047C136.781 14.3151 136.016 15.3359 134.484 15.8672L137.586 21H136.016L133.25 16.25H130.867ZM130.867 15.1094H132.688C133.625 15.1094 134.312 14.9245 134.75 14.5547C135.188 14.1797 135.406 13.6198 135.406 12.875C135.406 12.1198 135.182 11.5755 134.734 11.2422C134.292 10.9089 133.578 10.7422 132.594 10.7422H130.867V15.1094ZM142.852 21.1562C141.586 21.1562 140.586 20.7708 139.852 20C139.122 19.2292 138.758 18.1589 138.758 16.7891C138.758 15.4089 139.096 14.3125 139.773 13.5C140.456 12.6875 141.37 12.2812 142.516 12.2812C143.589 12.2812 144.438 12.6354 145.062 13.3438C145.688 14.0469 146 14.9766 146 16.1328V16.9531H140.102C140.128 17.9583 140.38 18.7214 140.859 19.2422C141.344 19.763 142.023 20.0234 142.898 20.0234C143.82 20.0234 144.732 19.8307 145.633 19.4453V20.6016C145.174 20.7995 144.74 20.9401 144.328 21.0234C143.922 21.112 143.43 21.1562 142.852 21.1562ZM142.5 13.3672C141.812 13.3672 141.263 13.5911 140.852 14.0391C140.445 14.487 140.206 15.1068 140.133 15.8984H144.609C144.609 15.0807 144.427 14.4557 144.062 14.0234C143.698 13.5859 143.177 13.3672 142.5 13.3672ZM150.094 21L146.844 12.4375H148.234L150.078 17.5156C150.495 18.7031 150.74 19.474 150.812 19.8281H150.875C150.932 19.5521 151.112 18.9818 151.414 18.1172C151.721 17.2474 152.406 15.3542 153.469 12.4375H154.859L151.609 21H150.094ZM157.531 21H156.234V12.4375H157.531V21ZM156.125 10.1172C156.125 9.82031 156.198 9.60417 156.344 9.46875C156.49 9.32812 156.672 9.25781 156.891 9.25781C157.099 9.25781 157.279 9.32812 157.43 9.46875C157.581 9.60938 157.656 9.82552 157.656 10.1172C157.656 10.4089 157.581 10.6276 157.43 10.7734C157.279 10.9141 157.099 10.9844 156.891 10.9844C156.672 10.9844 156.49 10.9141 156.344 10.7734C156.198 10.6276 156.125 10.4089 156.125 10.1172ZM163.898 21.1562C162.633 21.1562 161.633 20.7708 160.898 20C160.169 19.2292 159.805 18.1589 159.805 16.7891C159.805 15.4089 160.143 14.3125 160.82 13.5C161.503 12.6875 162.417 12.2812 163.562 12.2812C164.635 12.2812 165.484 12.6354 166.109 13.3438C166.734 14.0469 167.047 14.9766 167.047 16.1328V16.9531H161.148C161.174 17.9583 161.427 18.7214 161.906 19.2422C162.391 19.763 163.07 20.0234 163.945 20.0234C164.867 20.0234 165.779 19.8307 166.68 19.4453V20.6016C166.221 20.7995 165.786 20.9401 165.375 21.0234C164.969 21.112 164.477 21.1562 163.898 21.1562ZM163.547 13.3672C162.859 13.3672 162.31 13.5911 161.898 14.0391C161.492 14.487 161.253 15.1068 161.18 15.8984H165.656C165.656 15.0807 165.474 14.4557 165.109 14.0234C164.745 13.5859 164.224 13.3672 163.547 13.3672ZM176.258 21L174.688 15.9766C174.589 15.6693 174.404 14.9714 174.133 13.8828H174.07C173.862 14.7943 173.68 15.4974 173.523 15.9922L171.906 21H170.406L168.07 12.4375H169.43C169.982 14.5885 170.401 16.2266 170.688 17.3516C170.979 18.4766 171.146 19.2344 171.188 19.625H171.25C171.307 19.3281 171.398 18.9453 171.523 18.4766C171.654 18.0026 171.766 17.6276 171.859 17.3516L173.43 12.4375H174.836L176.367 17.3516C176.659 18.2474 176.857 19 176.961 19.6094H177.023C177.044 19.4219 177.099 19.1328 177.188 18.7422C177.281 18.3516 177.826 16.25 178.82 12.4375H180.164L177.797 21H176.258Z" fill="white"/>
<path d="M18.0156 18.9609C18.0156 19.9661 17.651 20.75 16.9219 21.3125C16.1927 21.875 15.2031 22.1562 13.9531 22.1562C12.599 22.1562 11.5573 21.9818 10.8281 21.6328V20.3516C11.2969 20.5495 11.8073 20.7057 12.3594 20.8203C12.9115 20.9349 13.4583 20.9922 14 20.9922C14.8854 20.9922 15.5521 20.8255 16 20.4922C16.4479 20.1536 16.6719 19.6849 16.6719 19.0859C16.6719 18.6901 16.5911 18.3672 16.4297 18.1172C16.2734 17.862 16.0078 17.6276 15.6328 17.4141C15.263 17.2005 14.6979 16.9583 13.9375 16.6875C12.875 16.3073 12.1146 15.8568 11.6562 15.3359C11.2031 14.8151 10.9766 14.1354 10.9766 13.2969C10.9766 12.4167 11.3073 11.7161 11.9688 11.1953C12.6302 10.6745 13.5052 10.4141 14.5938 10.4141C15.7292 10.4141 16.7734 10.6224 17.7266 11.0391L17.3125 12.1953C16.3698 11.7995 15.4531 11.6016 14.5625 11.6016C13.8594 11.6016 13.3099 11.7526 12.9141 12.0547C12.5182 12.3568 12.3203 12.776 12.3203 13.3125C12.3203 13.7083 12.3932 14.0339 12.5391 14.2891C12.6849 14.5391 12.9297 14.7708 13.2734 14.9844C13.6224 15.1927 14.1536 15.4245 14.8672 15.6797C16.0651 16.1068 16.888 16.5651 17.3359 17.0547C17.7891 17.5443 18.0156 18.1797 18.0156 18.9609ZM22.9219 21.0859C23.151 21.0859 23.3724 21.0703 23.5859 21.0391C23.7995 21.0026 23.9688 20.9661 24.0938 20.9297V21.9219C23.9531 21.9896 23.7448 22.0443 23.4688 22.0859C23.1979 22.1328 22.9531 22.1562 22.7344 22.1562C21.0781 22.1562 20.25 21.2839 20.25 19.5391V14.4453H19.0234V13.8203L20.25 13.2812L20.7969 11.4531H21.5469V13.4375H24.0312V14.4453H21.5469V19.4844C21.5469 20 21.6693 20.3958 21.9141 20.6719C22.1589 20.9479 22.4948 21.0859 22.9219 21.0859ZM31.0781 22L30.8203 20.7812H30.7578C30.3307 21.3177 29.9036 21.6823 29.4766 21.875C29.0547 22.0625 28.526 22.1562 27.8906 22.1562C27.0417 22.1562 26.375 21.9375 25.8906 21.5C25.4115 21.0625 25.1719 20.4401 25.1719 19.6328C25.1719 17.9036 26.5547 16.9974 29.3203 16.9141L30.7734 16.8672V16.3359C30.7734 15.6641 30.6276 15.1693 30.3359 14.8516C30.0495 14.5286 29.5885 14.3672 28.9531 14.3672C28.2396 14.3672 27.4323 14.5859 26.5312 15.0234L26.1328 14.0312C26.5547 13.8021 27.0156 13.6224 27.5156 13.4922C28.0208 13.362 28.526 13.2969 29.0312 13.2969C30.0521 13.2969 30.8073 13.5234 31.2969 13.9766C31.7917 14.4297 32.0391 15.1562 32.0391 16.1562V22H31.0781ZM28.1484 21.0859C28.9557 21.0859 29.5885 20.8646 30.0469 20.4219C30.5104 19.9792 30.7422 19.3594 30.7422 18.5625V17.7891L29.4453 17.8438C28.4141 17.8802 27.6693 18.0417 27.2109 18.3281C26.7578 18.6094 26.5312 19.0495 26.5312 19.6484C26.5312 20.1172 26.6719 20.474 26.9531 20.7188C27.2396 20.9635 27.638 21.0859 28.1484 21.0859ZM37.4844 21.0859C37.7135 21.0859 37.9349 21.0703 38.1484 21.0391C38.362 21.0026 38.5312 20.9661 38.6562 20.9297V21.9219C38.5156 21.9896 38.3073 22.0443 38.0312 22.0859C37.7604 22.1328 37.5156 22.1562 37.2969 22.1562C35.6406 22.1562 34.8125 21.2839 34.8125 19.5391V14.4453H33.5859V13.8203L34.8125 13.2812L35.3594 11.4531H36.1094V13.4375H38.5938V14.4453H36.1094V19.4844C36.1094 20 36.2318 20.3958 36.4766 20.6719C36.7214 20.9479 37.0573 21.0859 37.4844 21.0859ZM41.5938 13.4375V18.9922C41.5938 19.6901 41.7526 20.2109 42.0703 20.5547C42.388 20.8984 42.8854 21.0703 43.5625 21.0703C44.4583 21.0703 45.112 20.8255 45.5234 20.3359C45.9401 19.8464 46.1484 19.0469 46.1484 17.9375V13.4375H47.4453V22H46.375L46.1875 20.8516H46.1172C45.8516 21.2734 45.4818 21.5964 45.0078 21.8203C44.5391 22.0443 44.0026 22.1562 43.3984 22.1562C42.3568 22.1562 41.5755 21.9089 41.0547 21.4141C40.5391 20.9193 40.2812 20.1276 40.2812 19.0391V13.4375H41.5938ZM55.7266 19.6641C55.7266 20.4609 55.4297 21.0755 54.8359 21.5078C54.2422 21.9401 53.4089 22.1562 52.3359 22.1562C51.2005 22.1562 50.3151 21.9766 49.6797 21.6172V20.4141C50.0911 20.6224 50.5312 20.7865 51 20.9062C51.474 21.026 51.9297 21.0859 52.3672 21.0859C53.0443 21.0859 53.5651 20.9792 53.9297 20.7656C54.2943 20.5469 54.4766 20.2161 54.4766 19.7734C54.4766 19.4401 54.3307 19.1562 54.0391 18.9219C53.7526 18.6823 53.1901 18.401 52.3516 18.0781C51.5547 17.7812 50.987 17.5234 50.6484 17.3047C50.3151 17.0807 50.0651 16.8281 49.8984 16.5469C49.737 16.2656 49.6562 15.9297 49.6562 15.5391C49.6562 14.8411 49.9401 14.2917 50.5078 13.8906C51.0755 13.4844 51.8542 13.2812 52.8438 13.2812C53.7656 13.2812 54.6667 13.4688 55.5469 13.8438L55.0859 14.8984C54.2266 14.5443 53.4479 14.3672 52.75 14.3672C52.1354 14.3672 51.6719 14.4635 51.3594 14.6562C51.0469 14.849 50.8906 15.1146 50.8906 15.4531C50.8906 15.6823 50.9479 15.8776 51.0625 16.0391C51.1823 16.2005 51.3724 16.3542 51.6328 16.5C51.8932 16.6458 52.3932 16.8568 53.1328 17.1328C54.1484 17.5026 54.8333 17.875 55.1875 18.25C55.5469 18.625 55.7266 19.0964 55.7266 19.6641Z" fill="black"/>
<path d="M18.0156 17.9609C18.0156 18.9661 17.651 19.75 16.9219 20.3125C16.1927 20.875 15.2031 21.1562 13.9531 21.1562C12.599 21.1562 11.5573 20.9818 10.8281 20.6328V19.3516C11.2969 19.5495 11.8073 19.7057 12.3594 19.8203C12.9115 19.9349 13.4583 19.9922 14 19.9922C14.8854 19.9922 15.5521 19.8255 16 19.4922C16.4479 19.1536 16.6719 18.6849 16.6719 18.0859C16.6719 17.6901 16.5911 17.3672 16.4297 17.1172C16.2734 16.862 16.0078 16.6276 15.6328 16.4141C15.263 16.2005 14.6979 15.9583 13.9375 15.6875C12.875 15.3073 12.1146 14.8568 11.6562 14.3359C11.2031 13.8151 10.9766 13.1354 10.9766 12.2969C10.9766 11.4167 11.3073 10.7161 11.9688 10.1953C12.6302 9.67448 13.5052 9.41406 14.5938 9.41406C15.7292 9.41406 16.7734 9.6224 17.7266 10.0391L17.3125 11.1953C16.3698 10.7995 15.4531 10.6016 14.5625 10.6016C13.8594 10.6016 13.3099 10.7526 12.9141 11.0547C12.5182 11.3568 12.3203 11.776 12.3203 12.3125C12.3203 12.7083 12.3932 13.0339 12.5391 13.2891C12.6849 13.5391 12.9297 13.7708 13.2734 13.9844C13.6224 14.1927 14.1536 14.4245 14.8672 14.6797C16.0651 15.1068 16.888 15.5651 17.3359 16.0547C17.7891 16.5443 18.0156 17.1797 18.0156 17.9609ZM22.9219 20.0859C23.151 20.0859 23.3724 20.0703 23.5859 20.0391C23.7995 20.0026 23.9688 19.9661 24.0938 19.9297V20.9219C23.9531 20.9896 23.7448 21.0443 23.4688 21.0859C23.1979 21.1328 22.9531 21.1562 22.7344 21.1562C21.0781 21.1562 20.25 20.2839 20.25 18.5391V13.4453H19.0234V12.8203L20.25 12.2812L20.7969 10.4531H21.5469V12.4375H24.0312V13.4453H21.5469V18.4844C21.5469 19 21.6693 19.3958 21.9141 19.6719C22.1589 19.9479 22.4948 20.0859 22.9219 20.0859ZM31.0781 21L30.8203 19.7812H30.7578C30.3307 20.3177 29.9036 20.6823 29.4766 20.875C29.0547 21.0625 28.526 21.1562 27.8906 21.1562C27.0417 21.1562 26.375 20.9375 25.8906 20.5C25.4115 20.0625 25.1719 19.4401 25.1719 18.6328C25.1719 16.9036 26.5547 15.9974 29.3203 15.9141L30.7734 15.8672V15.3359C30.7734 14.6641 30.6276 14.1693 30.3359 13.8516C30.0495 13.5286 29.5885 13.3672 28.9531 13.3672C28.2396 13.3672 27.4323 13.5859 26.5312 14.0234L26.1328 13.0312C26.5547 12.8021 27.0156 12.6224 27.5156 12.4922C28.0208 12.362 28.526 12.2969 29.0312 12.2969C30.0521 12.2969 30.8073 12.5234 31.2969 12.9766C31.7917 13.4297 32.0391 14.1562 32.0391 15.1562V21H31.0781ZM28.1484 20.0859C28.9557 20.0859 29.5885 19.8646 30.0469 19.4219C30.5104 18.9792 30.7422 18.3594 30.7422 17.5625V16.7891L29.4453 16.8438C28.4141 16.8802 27.6693 17.0417 27.2109 17.3281C26.7578 17.6094 26.5312 18.0495 26.5312 18.6484C26.5312 19.1172 26.6719 19.474 26.9531 19.7188C27.2396 19.9635 27.638 20.0859 28.1484 20.0859ZM37.4844 20.0859C37.7135 20.0859 37.9349 20.0703 38.1484 20.0391C38.362 20.0026 38.5312 19.9661 38.6562 19.9297V20.9219C38.5156 20.9896 38.3073 21.0443 38.0312 21.0859C37.7604 21.1328 37.5156 21.1562 37.2969 21.1562C35.6406 21.1562 34.8125 20.2839 34.8125 18.5391V13.4453H33.5859V12.8203L34.8125 12.2812L35.3594 10.4531H36.1094V12.4375H38.5938V13.4453H36.1094V18.4844C36.1094 19 36.2318 19.3958 36.4766 19.6719C36.7214 19.9479 37.0573 20.0859 37.4844 20.0859ZM41.5938 12.4375V17.9922C41.5938 18.6901 41.7526 19.2109 42.0703 19.5547C42.388 19.8984 42.8854 20.0703 43.5625 20.0703C44.4583 20.0703 45.112 19.8255 45.5234 19.3359C45.9401 18.8464 46.1484 18.0469 46.1484 16.9375V12.4375H47.4453V21H46.375L46.1875 19.8516H46.1172C45.8516 20.2734 45.4818 20.5964 45.0078 20.8203C44.5391 21.0443 44.0026 21.1562 43.3984 21.1562C42.3568 21.1562 41.5755 20.9089 41.0547 20.4141C40.5391 19.9193 40.2812 19.1276 40.2812 18.0391V12.4375H41.5938ZM55.7266 18.6641C55.7266 19.4609 55.4297 20.0755 54.8359 20.5078C54.2422 20.9401 53.4089 21.1562 52.3359 21.1562C51.2005 21.1562 50.3151 20.9766 49.6797 20.6172V19.4141C50.0911 19.6224 50.5312 19.7865 51 19.9062C51.474 20.026 51.9297 20.0859 52.3672 20.0859C53.0443 20.0859 53.5651 19.9792 53.9297 19.7656C54.2943 19.5469 54.4766 19.2161 54.4766 18.7734C54.4766 18.4401 54.3307 18.1562 54.0391 17.9219C53.7526 17.6823 53.1901 17.401 52.3516 17.0781C51.5547 16.7812 50.987 16.5234 50.6484 16.3047C50.3151 16.0807 50.0651 15.8281 49.8984 15.5469C49.737 15.2656 49.6562 14.9297 49.6562 14.5391C49.6562 13.8411 49.9401 13.2917 50.5078 12.8906C51.0755 12.4844 51.8542 12.2812 52.8438 12.2812C53.7656 12.2812 54.6667 12.4688 55.5469 12.8438L55.0859 13.8984C54.2266 13.5443 53.4479 13.3672 52.75 13.3672C52.1354 13.3672 51.6719 13.4635 51.3594 13.6562C51.0469 13.849 50.8906 14.1146 50.8906 14.4531C50.8906 14.6823 50.9479 14.8776 51.0625 15.0391C51.1823 15.2005 51.3724 15.3542 51.6328 15.5C51.8932 15.6458 52.3932 15.8568 53.1328 16.1328C54.1484 16.5026 54.8333 16.875 55.1875 17.25C55.5469 17.625 55.7266 18.0964 55.7266 18.6641Z" fill="white"/>
<defs>
<linearGradient id="paint0_linear" x1="0" y1="0" x2="0" y2="30" gradientUnits="userSpaceOnUse">
<stop stop-color="#BBBBBB" stop-opacity="0.1"/>
<stop offset="1" stop-opacity="0.1"/>
</linearGradient>
</defs>
</svg>
