<svg width="191" height="30" viewBox="0 0 191 30" fill="none" xmlns="http://www.w3.org/2000/svg"><path d="M67 0h119a5 5 0 0 1 5 5v20a5 5 0 0 1-5 5H67V0z" fill="#59595D" fill-opacity=".6"/><path d="M0 5a5 5 0 0 1 5-5h62v30H5a5 5 0 0 1-5-5V5z" fill="#555"/><path d="M0 5a5 5 0 0 1 5-5h181a5 5 0 0 1 5 5v20a5 5 0 0 1-5 5H5a5 5 0 0 1-5-5V5z" fill="url(#a)"/><path d="M87.195 10.578v7.39c0 1.303-.393 2.326-1.18 3.071-.786.745-1.867 1.117-3.242 1.117s-2.44-.375-3.195-1.125c-.75-.75-1.125-1.781-1.125-3.093v-7.36h1.328v7.453c0 .953.26 1.685.781 2.196.521.51 1.287.765 2.297.765.964 0 1.706-.255 2.227-.765.52-.516.781-1.253.781-2.211v-7.438h1.328zM95.891 22v-5.54c0-.697-.16-1.218-.477-1.562-.318-.343-.815-.515-1.492-.515-.896 0-1.552.242-1.969.726-.416.485-.625 1.284-.625 2.399V22h-1.297v-8.563h1.055l.21 1.172h.063a2.622 2.622 0 0 1 1.118-.976 3.595 3.595 0 0 1 1.601-.352c1.031 0 1.807.25 2.328.75.521.495.781 1.29.781 2.383V22h-1.296zm9.797-1.148h-.071c-.599.87-1.495 1.304-2.687 1.304-1.12 0-1.992-.383-2.618-1.148-.62-.766-.93-1.854-.93-3.266 0-1.411.313-2.508.938-3.289.625-.781 1.495-1.172 2.61-1.172 1.161 0 2.052.422 2.672 1.266h.101l-.055-.617-.031-.602V9.844h1.297V22h-1.055l-.171-1.148zm-2.594.218c.885 0 1.526-.24 1.922-.718.401-.485.601-1.264.601-2.336v-.274c0-1.213-.203-2.078-.609-2.594-.401-.52-1.044-.78-1.93-.78-.76 0-1.344.296-1.75.89-.401.588-.601 1.422-.601 2.5 0 1.094.2 1.92.601 2.476.401.558.99.836 1.766.836zm10.195 1.086c-1.266 0-2.266-.385-3-1.156-.729-.77-1.094-1.841-1.094-3.21 0-1.381.339-2.477 1.016-3.29.682-.813 1.596-1.219 2.742-1.219 1.073 0 1.922.354 2.547 1.063.625.703.938 1.633.938 2.789v.82h-5.899c.026 1.005.279 1.768.758 2.29.484.52 1.164.78 2.039.78.922 0 1.833-.192 2.734-.578v1.157a6.626 6.626 0 0 1-1.304.421 7.05 7.05 0 0 1-1.477.133zm-.351-7.789c-.688 0-1.237.224-1.649.672-.406.448-.646 1.068-.719 1.86h4.477c0-.818-.182-1.443-.547-1.876-.365-.437-.885-.656-1.562-.656zm9.624-1.086c.381 0 .722.031 1.024.094l-.18 1.203a4.413 4.413 0 0 0-.937-.117c-.693 0-1.287.281-1.781.844-.49.562-.735 1.263-.735 2.101V22h-1.297v-8.563h1.071l.148 1.586h.063c.317-.557.7-.986 1.148-1.289.448-.302.94-.453 1.476-.453zm8.305 3.969V22h-1.328V10.578h3.133c1.401 0 2.435.268 3.101.805.672.536 1.008 1.344 1.008 2.422 0 1.51-.765 2.53-2.297 3.062L137.586 22h-1.57l-2.766-4.75h-2.383zm0-1.14h1.821c.937 0 1.624-.185 2.062-.555.438-.375.656-.935.656-1.68 0-.755-.224-1.3-.672-1.633-.442-.333-1.156-.5-2.14-.5h-1.727v4.367zm11.985 6.046c-1.266 0-2.266-.385-3-1.156-.73-.77-1.094-1.841-1.094-3.21 0-1.381.338-2.477 1.015-3.29.683-.813 1.597-1.219 2.743-1.219 1.073 0 1.922.354 2.546 1.063.626.703.938 1.633.938 2.789v.82h-5.898c.026 1.005.278 1.768.757 2.29.485.52 1.164.78 2.039.78a6.9 6.9 0 0 0 2.735-.578v1.157a6.633 6.633 0 0 1-1.305.421c-.406.089-.898.133-1.476.133zm-.352-7.789c-.688 0-1.237.224-1.648.672-.407.448-.646 1.068-.719 1.86h4.476c0-.818-.182-1.443-.547-1.876-.364-.437-.885-.656-1.562-.656zM150.094 22l-3.25-8.563h1.39l1.844 5.079c.417 1.187.662 1.958.734 2.312h.063c.057-.276.237-.846.539-1.71.307-.87.992-2.764 2.055-5.68h1.39L151.609 22h-1.515zm7.437 0h-1.297v-8.563h1.297V22zm-1.406-10.883c0-.297.073-.513.219-.648a.756.756 0 0 1 .547-.211c.208 0 .388.07.539.21.151.141.226.357.226.65 0 .29-.075.51-.226.655a.764.764 0 0 1-.539.211.756.756 0 0 1-.547-.21c-.146-.146-.219-.365-.219-.657zm7.773 11.04c-1.265 0-2.265-.386-3-1.157-.729-.77-1.093-1.841-1.093-3.21 0-1.381.338-2.477 1.015-3.29.683-.813 1.597-1.219 2.742-1.219 1.073 0 1.922.354 2.547 1.063.625.703.938 1.633.938 2.789v.82h-5.899c.026 1.005.279 1.768.758 2.29.485.52 1.164.78 2.039.78a6.9 6.9 0 0 0 2.735-.578v1.157a6.655 6.655 0 0 1-1.305.421c-.406.089-.898.133-1.477.133zm-.351-7.79c-.688 0-1.237.224-1.649.672-.406.448-.645 1.068-.718 1.86h4.476c0-.818-.182-1.443-.547-1.876-.364-.437-.885-.656-1.562-.656zM176.258 22l-1.57-5.023c-.099-.308-.284-1.006-.555-2.094h-.063c-.208.911-.39 1.614-.547 2.11L171.906 22h-1.5l-2.336-8.563h1.36c.552 2.152.971 3.79 1.258 4.915.291 1.125.458 1.882.5 2.273h.062c.057-.297.148-.68.273-1.148.131-.474.243-.85.336-1.125l1.571-4.915h1.406l1.531 4.915c.292.895.49 1.648.594 2.257h.062a8.72 8.72 0 0 1 .165-.867c.093-.39.638-2.492 1.632-6.305h1.344L177.797 22h-1.539z" fill="#010101" fill-opacity=".3"/><path d="M87.195 9.578v7.39c0 1.303-.393 2.326-1.18 3.071-.786.745-1.867 1.117-3.242 1.117s-2.44-.375-3.195-1.125c-.75-.75-1.125-1.781-1.125-3.093v-7.36h1.328v7.453c0 .953.26 1.685.781 2.196.521.51 1.287.765 2.297.765.964 0 1.706-.255 2.227-.765.52-.516.781-1.253.781-2.211V9.578h1.328zM95.891 21v-5.54c0-.697-.16-1.218-.477-1.562-.318-.343-.815-.515-1.492-.515-.896 0-1.552.242-1.969.726-.416.485-.625 1.284-.625 2.399V21h-1.297v-8.563h1.055l.21 1.172h.063a2.622 2.622 0 0 1 1.118-.976 3.595 3.595 0 0 1 1.601-.352c1.031 0 1.807.25 2.328.75.521.495.781 1.29.781 2.383V21h-1.296zm9.797-1.148h-.071c-.599.87-1.495 1.304-2.687 1.304-1.12 0-1.992-.383-2.618-1.148-.62-.766-.93-1.854-.93-3.266 0-1.411.313-2.508.938-3.289.625-.781 1.495-1.172 2.61-1.172 1.161 0 2.052.422 2.672 1.266h.101l-.055-.617-.031-.602V8.844h1.297V21h-1.055l-.171-1.148zm-2.594.218c.885 0 1.526-.24 1.922-.718.401-.485.601-1.264.601-2.336v-.274c0-1.213-.203-2.078-.609-2.594-.401-.52-1.044-.78-1.93-.78-.76 0-1.344.296-1.75.89-.401.588-.601 1.422-.601 2.5 0 1.094.2 1.92.601 2.476.401.558.99.836 1.766.836zm10.195 1.086c-1.266 0-2.266-.385-3-1.156-.729-.77-1.094-1.841-1.094-3.21 0-1.381.339-2.477 1.016-3.29.682-.813 1.596-1.219 2.742-1.219 1.073 0 1.922.354 2.547 1.063.625.703.938 1.633.938 2.789v.82h-5.899c.026 1.005.279 1.768.758 2.29.484.52 1.164.78 2.039.78.922 0 1.833-.192 2.734-.578v1.157a6.626 6.626 0 0 1-1.304.421 7.05 7.05 0 0 1-1.477.133zm-.351-7.789c-.688 0-1.237.224-1.649.672-.406.448-.646 1.068-.719 1.86h4.477c0-.818-.182-1.443-.547-1.876-.365-.437-.885-.656-1.562-.656zm9.624-1.086c.381 0 .722.031 1.024.094l-.18 1.203a4.413 4.413 0 0 0-.937-.117c-.693 0-1.287.281-1.781.844-.49.562-.735 1.263-.735 2.101V21h-1.297v-8.563h1.071l.148 1.586h.063c.317-.557.7-.986 1.148-1.289.448-.302.94-.453 1.476-.453zm8.305 3.969V21h-1.328V9.578h3.133c1.401 0 2.435.268 3.101.805.672.536 1.008 1.344 1.008 2.422 0 1.51-.765 2.53-2.297 3.062L137.586 21h-1.57l-2.766-4.75h-2.383zm0-1.14h1.821c.937 0 1.624-.185 2.062-.555.438-.375.656-.935.656-1.68 0-.755-.224-1.3-.672-1.633-.442-.333-1.156-.5-2.14-.5h-1.727v4.367zm11.985 6.046c-1.266 0-2.266-.385-3-1.156-.73-.77-1.094-1.841-1.094-3.21 0-1.381.338-2.477 1.015-3.29.683-.813 1.597-1.219 2.743-1.219 1.073 0 1.922.354 2.546 1.063.626.703.938 1.633.938 2.789v.82h-5.898c.026 1.005.278 1.768.757 2.29.485.52 1.164.78 2.039.78a6.9 6.9 0 0 0 2.735-.578v1.157a6.633 6.633 0 0 1-1.305.421c-.406.089-.898.133-1.476.133zm-.352-7.789c-.688 0-1.237.224-1.648.672-.407.448-.646 1.068-.719 1.86h4.476c0-.818-.182-1.443-.547-1.876-.364-.437-.885-.656-1.562-.656zM150.094 21l-3.25-8.563h1.39l1.844 5.079c.417 1.187.662 1.958.734 2.312h.063c.057-.276.237-.846.539-1.71.307-.87.992-2.764 2.055-5.68h1.39L151.609 21h-1.515zm7.437 0h-1.297v-8.563h1.297V21zm-1.406-10.883c0-.297.073-.513.219-.648a.757.757 0 0 1 .547-.211c.208 0 .388.07.539.21.151.141.226.358.226.65 0 .29-.075.51-.226.655a.764.764 0 0 1-.539.211.756.756 0 0 1-.547-.21c-.146-.146-.219-.365-.219-.657zm7.773 11.04c-1.265 0-2.265-.386-3-1.157-.729-.77-1.093-1.841-1.093-3.21 0-1.381.338-2.477 1.015-3.29.683-.813 1.597-1.219 2.742-1.219 1.073 0 1.922.354 2.547 1.063.625.703.938 1.633.938 2.789v.82h-5.899c.026 1.005.279 1.768.758 2.29.485.52 1.164.78 2.039.78a6.9 6.9 0 0 0 2.735-.578v1.157a6.655 6.655 0 0 1-1.305.421c-.406.089-.898.133-1.477.133zm-.351-7.79c-.688 0-1.237.224-1.649.672-.406.448-.645 1.068-.718 1.86h4.476c0-.818-.182-1.443-.547-1.876-.364-.437-.885-.656-1.562-.656zM176.258 21l-1.57-5.023c-.099-.308-.284-1.006-.555-2.094h-.063c-.208.911-.39 1.614-.547 2.11L171.906 21h-1.5l-2.336-8.563h1.36c.552 2.152.971 3.79 1.258 4.915.291 1.125.458 1.882.5 2.273h.062c.057-.297.148-.68.273-1.148.131-.474.243-.85.336-1.125l1.571-4.915h1.406l1.531 4.915c.292.895.49 1.648.594 2.257h.062a8.72 8.72 0 0 1 .165-.867c.093-.39.638-2.492 1.632-6.305h1.344L177.797 21h-1.539z" fill="#fff"/><path d="M18.016 18.96c0 1.006-.365 1.79-1.094 2.352-.73.563-1.719.844-2.969.844-1.354 0-2.396-.174-3.125-.523v-1.281c.469.197.98.354 1.531.468a8.055 8.055 0 0 0 1.641.172c.885 0 1.552-.166 2-.5.448-.338.672-.807.672-1.406 0-.396-.08-.719-.242-.969-.157-.255-.422-.49-.797-.703-.37-.213-.935-.456-1.695-.727-1.063-.38-1.823-.83-2.282-1.351-.453-.52-.68-1.2-.68-2.04 0-.88.331-1.58.993-2.1.661-.521 1.536-.782 2.625-.782 1.135 0 2.18.208 3.133.625l-.415 1.156c-.942-.396-1.859-.593-2.75-.593-.703 0-1.252.15-1.648.453-.396.302-.594.721-.594 1.258 0 .395.073.72.22.976.145.25.39.482.733.695.35.209.88.44 1.594.696 1.198.427 2.021.885 2.469 1.375.453.49.68 1.125.68 1.906zm4.906 2.126c.229 0 .45-.016.664-.047.213-.036.383-.073.508-.11v.993c-.14.068-.35.122-.625.164-.271.047-.516.07-.735.07-1.656 0-2.484-.872-2.484-2.617v-5.094h-1.227v-.625l1.227-.539.547-1.828h.75v1.985h2.484v1.007h-2.484v5.04c0 .515.122.91.367 1.187.245.276.58.414 1.008.414zm8.156.914l-.258-1.219h-.062c-.427.537-.854.901-1.281 1.094-.422.188-.951.281-1.586.281-.85 0-1.516-.218-2-.656-.48-.438-.72-1.06-.72-1.867 0-1.73 1.384-2.636 4.15-2.719l1.452-.047v-.531c0-.672-.145-1.167-.437-1.484-.287-.323-.747-.485-1.383-.485-.713 0-1.52.219-2.422.656l-.398-.992c.422-.229.883-.409 1.383-.539a6.052 6.052 0 0 1 1.515-.195c1.021 0 1.776.226 2.266.68.495.453.742 1.18.742 2.18V22h-.96zm-2.93-.914c.808 0 1.44-.221 1.899-.664.463-.443.695-1.063.695-1.86v-.773l-1.297.055c-1.03.036-1.776.198-2.234.484-.453.281-.68.721-.68 1.32 0 .47.14.826.422 1.07.287.245.685.368 1.195.368zm9.336 0c.23 0 .45-.016.664-.047.214-.036.383-.073.508-.11v.993c-.14.068-.349.122-.625.164-.27.047-.515.07-.734.07-1.656 0-2.484-.872-2.484-2.617v-5.094h-1.227v-.625l1.227-.539.546-1.828h.75v1.985h2.485v1.007h-2.485v5.04c0 .515.123.91.368 1.187.244.276.58.414 1.007.414zm4.11-7.648v5.554c0 .698.159 1.219.476 1.563.318.343.815.515 1.492.515.896 0 1.55-.244 1.961-.734.417-.49.625-1.29.625-2.398v-4.5h1.297V22h-1.07l-.188-1.148h-.07a2.58 2.58 0 0 1-1.11.968c-.468.224-1.004.336-1.609.336-1.041 0-1.823-.247-2.343-.742-.516-.495-.774-1.286-.774-2.375v-5.602h1.313zm14.133 6.226c0 .797-.297 1.412-.891 1.844-.594.432-1.427.648-2.5.648-1.136 0-2.02-.18-2.656-.539v-1.203a6.44 6.44 0 0 0 1.32.492c.474.12.93.18 1.367.18.677 0 1.198-.107 1.563-.32.364-.22.547-.55.547-.993 0-.333-.146-.617-.438-.851-.286-.24-.849-.521-1.687-.844-.797-.297-1.365-.555-1.704-.773-.333-.224-.583-.477-.75-.758-.161-.281-.242-.617-.242-1.008 0-.698.284-1.247.852-1.648.567-.407 1.346-.61 2.336-.61.922 0 1.823.188 2.703.563l-.461 1.054c-.86-.354-1.638-.53-2.336-.53-.615 0-1.078.095-1.39.288-.313.193-.47.459-.47.797 0 .23.058.425.172.586.12.162.31.315.57.461.261.146.761.357 1.5.633 1.016.37 1.701.742 2.056 1.117.359.375.539.846.539 1.414z" fill="#000"/><path d="M18.016 17.96c0 1.006-.365 1.79-1.094 2.352-.73.563-1.719.844-2.969.844-1.354 0-2.396-.174-3.125-.523v-1.281c.469.197.98.354 1.531.468a8.055 8.055 0 0 0 1.641.172c.885 0 1.552-.166 2-.5.448-.338.672-.807.672-1.406 0-.396-.08-.719-.242-.969-.157-.255-.422-.49-.797-.703-.37-.213-.935-.456-1.695-.727-1.063-.38-1.823-.83-2.282-1.351-.453-.52-.68-1.2-.68-2.04 0-.88.331-1.58.993-2.1.661-.522 1.536-.782 2.625-.782 1.135 0 2.18.208 3.133.625l-.415 1.156c-.942-.396-1.859-.593-2.75-.593-.703 0-1.252.15-1.648.453-.396.302-.594.721-.594 1.258 0 .395.073.72.22.976.145.25.39.482.733.695.35.209.88.44 1.594.696 1.198.427 2.021.885 2.469 1.375.453.49.68 1.125.68 1.906zm4.906 2.126c.229 0 .45-.016.664-.047.213-.036.383-.073.508-.11v.993c-.14.068-.35.122-.625.164-.271.047-.516.07-.735.07-1.656 0-2.484-.872-2.484-2.617v-5.094h-1.227v-.625l1.227-.539.547-1.828h.75v1.985h2.484v1.007h-2.484v5.04c0 .515.122.91.367 1.187.245.276.58.414 1.008.414zm8.156.914l-.258-1.219h-.062c-.427.537-.854.901-1.281 1.094-.422.188-.951.281-1.586.281-.85 0-1.516-.218-2-.656-.48-.438-.72-1.06-.72-1.867 0-1.73 1.384-2.636 4.15-2.719l1.452-.047v-.531c0-.672-.145-1.167-.437-1.484-.287-.323-.747-.485-1.383-.485-.713 0-1.52.219-2.422.656l-.398-.992c.422-.229.883-.409 1.383-.539a6.052 6.052 0 0 1 1.515-.195c1.021 0 1.776.226 2.266.68.495.453.742 1.18.742 2.18V21h-.96zm-2.93-.914c.808 0 1.44-.221 1.899-.664.463-.443.695-1.063.695-1.86v-.773l-1.297.055c-1.03.036-1.776.198-2.234.484-.453.281-.68.721-.68 1.32 0 .47.14.826.422 1.07.287.245.685.368 1.195.368zm9.336 0c.23 0 .45-.016.664-.047.214-.036.383-.073.508-.11v.993c-.14.068-.349.122-.625.164-.27.047-.515.07-.734.07-1.656 0-2.484-.872-2.484-2.617v-5.094h-1.227v-.625l1.227-.539.546-1.828h.75v1.985h2.485v1.007h-2.485v5.04c0 .515.123.91.368 1.187.244.276.58.414 1.007.414zm4.11-7.648v5.554c0 .698.159 1.219.476 1.563.318.343.815.515 1.492.515.896 0 1.55-.244 1.961-.734.417-.49.625-1.29.625-2.398v-4.5h1.297V21h-1.07l-.188-1.148h-.07a2.58 2.58 0 0 1-1.11.968c-.468.224-1.004.336-1.609.336-1.041 0-1.823-.247-2.343-.742-.516-.495-.774-1.286-.774-2.375v-5.602h1.313zm14.133 6.226c0 .797-.297 1.412-.891 1.844-.594.432-1.427.648-2.5.648-1.136 0-2.02-.18-2.656-.539v-1.203a6.44 6.44 0 0 0 1.32.492c.474.12.93.18 1.367.18.677 0 1.198-.107 1.563-.32.364-.22.547-.55.547-.993 0-.333-.146-.617-.438-.851-.286-.24-.849-.521-1.687-.844-.797-.297-1.365-.555-1.704-.773-.333-.224-.583-.477-.75-.758-.161-.281-.242-.617-.242-1.008 0-.698.284-1.247.852-1.648.567-.407 1.346-.61 2.336-.61.922 0 1.823.188 2.703.563l-.461 1.054c-.86-.354-1.638-.53-2.336-.53-.615 0-1.078.095-1.39.288-.313.193-.47.459-.47.797 0 .23.058.425.172.586.12.162.31.315.57.461.261.146.761.357 1.5.633 1.016.37 1.701.742 2.056 1.117.359.375.539.846.539 1.414z" fill="#fff"/><defs><linearGradient id="a" x2="0" y2="30" gradientUnits="userSpaceOnUse"><stop stop-color="#BBB" stop-opacity=".1"/><stop offset="1" stop-opacity=".1"/></linearGradient></defs></svg>