<svg width="167" height="30" viewBox="0 0 167 30" fill="none" xmlns="http://www.w3.org/2000/svg">
<path d="M67 0H162C164.761 0 167 2.23858 167 5V25C167 27.7614 164.761 30 162 30H67V0Z" fill="#44CC11"/>
<path d="M0 5C0 2.23858 2.23858 0 5 0H67V30H5C2.23858 30 0 27.7614 0 25V5Z" fill="#555555"/>
<path d="M0 5C0 2.23858 2.23858 0 5 0H162C164.761 0 167 2.23858 167 5V25C167 27.7614 164.761 30 162 30H5C2.23858 30 0 27.7614 0 25V5Z" fill="url(#paint0_linear)"/>
<path d="M87.1953 10.5781V17.9688C87.1953 19.2708 86.8021 20.2943 86.0156 21.0391C85.2292 21.7839 84.1484 22.1562 82.7734 22.1562C81.3984 22.1562 80.3333 21.7812 79.5781 21.0312C78.8281 20.2812 78.4531 19.25 78.4531 17.9375V10.5781H79.7812V18.0312C79.7812 18.9844 80.0417 19.7161 80.5625 20.2266C81.0833 20.737 81.849 20.9922 82.8594 20.9922C83.8229 20.9922 84.5651 20.737 85.0859 20.2266C85.6068 19.7109 85.8672 18.974 85.8672 18.0156V10.5781H87.1953ZM94.0156 22.1562C93.4583 22.1562 92.9479 22.0547 92.4844 21.8516C92.026 21.6432 91.6406 21.3255 91.3281 20.8984H91.2344C91.2969 21.3984 91.3281 21.8724 91.3281 22.3203V25.8438H90.0312V13.4375H91.0859L91.2656 14.6094H91.3281C91.6615 14.1406 92.0495 13.8021 92.4922 13.5938C92.9349 13.3854 93.4427 13.2812 94.0156 13.2812C95.151 13.2812 96.026 13.6693 96.6406 14.4453C97.2604 15.2214 97.5703 16.3099 97.5703 17.7109C97.5703 19.1172 97.2552 20.2109 96.625 20.9922C96 21.7682 95.1302 22.1562 94.0156 22.1562ZM93.8281 14.3828C92.9531 14.3828 92.3203 14.625 91.9297 15.1094C91.5391 15.5938 91.3385 16.3646 91.3281 17.4219V17.7109C91.3281 18.9141 91.5286 19.776 91.9297 20.2969C92.3307 20.8125 92.974 21.0703 93.8594 21.0703C94.599 21.0703 95.1771 20.7708 95.5938 20.1719C96.0156 19.5729 96.2266 18.7474 96.2266 17.6953C96.2266 16.6276 96.0156 15.8099 95.5938 15.2422C95.1771 14.6693 94.5885 14.3828 93.8281 14.3828ZM106.766 21.0859C106.995 21.0859 107.216 21.0703 107.43 21.0391C107.643 21.0026 107.812 20.9661 107.938 20.9297V21.9219C107.797 21.9896 107.589 22.0443 107.312 22.0859C107.042 22.1328 106.797 22.1562 106.578 22.1562C104.922 22.1562 104.094 21.2839 104.094 19.5391V14.4453H102.867V13.8203L104.094 13.2812L104.641 11.4531H105.391V13.4375H107.875V14.4453H105.391V19.4844C105.391 20 105.513 20.3958 105.758 20.6719C106.003 20.9479 106.339 21.0859 106.766 21.0859ZM117.047 17.7109C117.047 19.1068 116.695 20.1979 115.992 20.9844C115.289 21.7656 114.318 22.1562 113.078 22.1562C112.312 22.1562 111.633 21.9766 111.039 21.6172C110.445 21.2578 109.987 20.7422 109.664 20.0703C109.341 19.3984 109.18 18.612 109.18 17.7109C109.18 16.3151 109.529 15.2292 110.227 14.4531C110.924 13.6719 111.893 13.2812 113.133 13.2812C114.331 13.2812 115.281 13.6797 115.984 14.4766C116.693 15.2734 117.047 16.3516 117.047 17.7109ZM110.523 17.7109C110.523 18.8047 110.742 19.638 111.18 20.2109C111.617 20.7839 112.26 21.0703 113.109 21.0703C113.958 21.0703 114.602 20.7865 115.039 20.2188C115.482 19.6458 115.703 18.8099 115.703 17.7109C115.703 16.6224 115.482 15.7969 115.039 15.2344C114.602 14.6667 113.953 14.3828 113.094 14.3828C112.245 14.3828 111.604 14.6615 111.172 15.2188C110.74 15.776 110.523 16.6068 110.523 17.7109ZM129.312 20.8516H129.242C128.643 21.7214 127.747 22.1562 126.555 22.1562C125.435 22.1562 124.562 21.7734 123.938 21.0078C123.318 20.2422 123.008 19.1536 123.008 17.7422C123.008 16.3307 123.32 15.2344 123.945 14.4531C124.57 13.6719 125.44 13.2812 126.555 13.2812C127.716 13.2812 128.607 13.7031 129.227 14.5469H129.328L129.273 13.9297L129.242 13.3281V9.84375H130.539V22H129.484L129.312 20.8516ZM126.719 21.0703C127.604 21.0703 128.245 20.8307 128.641 20.3516C129.042 19.8672 129.242 19.0885 129.242 18.0156V17.7422C129.242 16.5286 129.039 15.6641 128.633 15.1484C128.232 14.6276 127.589 14.3672 126.703 14.3672C125.943 14.3672 125.359 14.6641 124.953 15.2578C124.552 15.8464 124.352 16.6797 124.352 17.7578C124.352 18.8516 124.552 19.6771 124.953 20.2344C125.354 20.7917 125.943 21.0703 126.719 21.0703ZM138.562 22L138.305 20.7812H138.242C137.815 21.3177 137.388 21.6823 136.961 21.875C136.539 22.0625 136.01 22.1562 135.375 22.1562C134.526 22.1562 133.859 21.9375 133.375 21.5C132.896 21.0625 132.656 20.4401 132.656 19.6328C132.656 17.9036 134.039 16.9974 136.805 16.9141L138.258 16.8672V16.3359C138.258 15.6641 138.112 15.1693 137.82 14.8516C137.534 14.5286 137.073 14.3672 136.438 14.3672C135.724 14.3672 134.917 14.5859 134.016 15.0234L133.617 14.0312C134.039 13.8021 134.5 13.6224 135 13.4922C135.505 13.362 136.01 13.2969 136.516 13.2969C137.536 13.2969 138.292 13.5234 138.781 13.9766C139.276 14.4297 139.523 15.1562 139.523 16.1562V22H138.562ZM135.633 21.0859C136.44 21.0859 137.073 20.8646 137.531 20.4219C137.995 19.9792 138.227 19.3594 138.227 18.5625V17.7891L136.93 17.8438C135.898 17.8802 135.154 18.0417 134.695 18.3281C134.242 18.6094 134.016 19.0495 134.016 19.6484C134.016 20.1172 134.156 20.474 134.438 20.7188C134.724 20.9635 135.122 21.0859 135.633 21.0859ZM144.969 21.0859C145.198 21.0859 145.419 21.0703 145.633 21.0391C145.846 21.0026 146.016 20.9661 146.141 20.9297V21.9219C146 21.9896 145.792 22.0443 145.516 22.0859C145.245 22.1328 145 22.1562 144.781 22.1562C143.125 22.1562 142.297 21.2839 142.297 19.5391V14.4453H141.07V13.8203L142.297 13.2812L142.844 11.4531H143.594V13.4375H146.078V14.4453H143.594V19.4844C143.594 20 143.716 20.3958 143.961 20.6719C144.206 20.9479 144.542 21.0859 144.969 21.0859ZM151.477 22.1562C150.211 22.1562 149.211 21.7708 148.477 21C147.747 20.2292 147.383 19.1589 147.383 17.7891C147.383 16.4089 147.721 15.3125 148.398 14.5C149.081 13.6875 149.995 13.2812 151.141 13.2812C152.214 13.2812 153.062 13.6354 153.688 14.3438C154.312 15.0469 154.625 15.9766 154.625 17.1328V17.9531H148.727C148.753 18.9583 149.005 19.7214 149.484 20.2422C149.969 20.763 150.648 21.0234 151.523 21.0234C152.445 21.0234 153.357 20.8307 154.258 20.4453V21.6016C153.799 21.7995 153.365 21.9401 152.953 22.0234C152.547 22.112 152.055 22.1562 151.477 22.1562ZM151.125 14.3672C150.438 14.3672 149.888 14.5911 149.477 15.0391C149.07 15.487 148.831 16.1068 148.758 16.8984H153.234C153.234 16.0807 153.052 15.4557 152.688 15.0234C152.323 14.5859 151.802 14.3672 151.125 14.3672Z" fill="#010101" fill-opacity="0.3"/>
<path d="M87.1953 9.57812V16.9688C87.1953 18.2708 86.8021 19.2943 86.0156 20.0391C85.2292 20.7839 84.1484 21.1562 82.7734 21.1562C81.3984 21.1562 80.3333 20.7812 79.5781 20.0312C78.8281 19.2812 78.4531 18.25 78.4531 16.9375V9.57812H79.7812V17.0312C79.7812 17.9844 80.0417 18.7161 80.5625 19.2266C81.0833 19.737 81.849 19.9922 82.8594 19.9922C83.8229 19.9922 84.5651 19.737 85.0859 19.2266C85.6068 18.7109 85.8672 17.974 85.8672 17.0156V9.57812H87.1953ZM94.0156 21.1562C93.4583 21.1562 92.9479 21.0547 92.4844 20.8516C92.026 20.6432 91.6406 20.3255 91.3281 19.8984H91.2344C91.2969 20.3984 91.3281 20.8724 91.3281 21.3203V24.8438H90.0312V12.4375H91.0859L91.2656 13.6094H91.3281C91.6615 13.1406 92.0495 12.8021 92.4922 12.5938C92.9349 12.3854 93.4427 12.2812 94.0156 12.2812C95.151 12.2812 96.026 12.6693 96.6406 13.4453C97.2604 14.2214 97.5703 15.3099 97.5703 16.7109C97.5703 18.1172 97.2552 19.2109 96.625 19.9922C96 20.7682 95.1302 21.1562 94.0156 21.1562ZM93.8281 13.3828C92.9531 13.3828 92.3203 13.625 91.9297 14.1094C91.5391 14.5938 91.3385 15.3646 91.3281 16.4219V16.7109C91.3281 17.9141 91.5286 18.776 91.9297 19.2969C92.3307 19.8125 92.974 20.0703 93.8594 20.0703C94.599 20.0703 95.1771 19.7708 95.5938 19.1719C96.0156 18.5729 96.2266 17.7474 96.2266 16.6953C96.2266 15.6276 96.0156 14.8099 95.5938 14.2422C95.1771 13.6693 94.5885 13.3828 93.8281 13.3828ZM106.766 20.0859C106.995 20.0859 107.216 20.0703 107.43 20.0391C107.643 20.0026 107.812 19.9661 107.938 19.9297V20.9219C107.797 20.9896 107.589 21.0443 107.312 21.0859C107.042 21.1328 106.797 21.1562 106.578 21.1562C104.922 21.1562 104.094 20.2839 104.094 18.5391V13.4453H102.867V12.8203L104.094 12.2812L104.641 10.4531H105.391V12.4375H107.875V13.4453H105.391V18.4844C105.391 19 105.513 19.3958 105.758 19.6719C106.003 19.9479 106.339 20.0859 106.766 20.0859ZM117.047 16.7109C117.047 18.1068 116.695 19.1979 115.992 19.9844C115.289 20.7656 114.318 21.1562 113.078 21.1562C112.312 21.1562 111.633 20.9766 111.039 20.6172C110.445 20.2578 109.987 19.7422 109.664 19.0703C109.341 18.3984 109.18 17.612 109.18 16.7109C109.18 15.3151 109.529 14.2292 110.227 13.4531C110.924 12.6719 111.893 12.2812 113.133 12.2812C114.331 12.2812 115.281 12.6797 115.984 13.4766C116.693 14.2734 117.047 15.3516 117.047 16.7109ZM110.523 16.7109C110.523 17.8047 110.742 18.638 111.18 19.2109C111.617 19.7839 112.26 20.0703 113.109 20.0703C113.958 20.0703 114.602 19.7865 115.039 19.2188C115.482 18.6458 115.703 17.8099 115.703 16.7109C115.703 15.6224 115.482 14.7969 115.039 14.2344C114.602 13.6667 113.953 13.3828 113.094 13.3828C112.245 13.3828 111.604 13.6615 111.172 14.2188C110.74 14.776 110.523 15.6068 110.523 16.7109ZM129.312 19.8516H129.242C128.643 20.7214 127.747 21.1562 126.555 21.1562C125.435 21.1562 124.562 20.7734 123.938 20.0078C123.318 19.2422 123.008 18.1536 123.008 16.7422C123.008 15.3307 123.32 14.2344 123.945 13.4531C124.57 12.6719 125.44 12.2812 126.555 12.2812C127.716 12.2812 128.607 12.7031 129.227 13.5469H129.328L129.273 12.9297L129.242 12.3281V8.84375H130.539V21H129.484L129.312 19.8516ZM126.719 20.0703C127.604 20.0703 128.245 19.8307 128.641 19.3516C129.042 18.8672 129.242 18.0885 129.242 17.0156V16.7422C129.242 15.5286 129.039 14.6641 128.633 14.1484C128.232 13.6276 127.589 13.3672 126.703 13.3672C125.943 13.3672 125.359 13.6641 124.953 14.2578C124.552 14.8464 124.352 15.6797 124.352 16.7578C124.352 17.8516 124.552 18.6771 124.953 19.2344C125.354 19.7917 125.943 20.0703 126.719 20.0703ZM138.562 21L138.305 19.7812H138.242C137.815 20.3177 137.388 20.6823 136.961 20.875C136.539 21.0625 136.01 21.1562 135.375 21.1562C134.526 21.1562 133.859 20.9375 133.375 20.5C132.896 20.0625 132.656 19.4401 132.656 18.6328C132.656 16.9036 134.039 15.9974 136.805 15.9141L138.258 15.8672V15.3359C138.258 14.6641 138.112 14.1693 137.82 13.8516C137.534 13.5286 137.073 13.3672 136.438 13.3672C135.724 13.3672 134.917 13.5859 134.016 14.0234L133.617 13.0312C134.039 12.8021 134.5 12.6224 135 12.4922C135.505 12.362 136.01 12.2969 136.516 12.2969C137.536 12.2969 138.292 12.5234 138.781 12.9766C139.276 13.4297 139.523 14.1562 139.523 15.1562V21H138.562ZM135.633 20.0859C136.44 20.0859 137.073 19.8646 137.531 19.4219C137.995 18.9792 138.227 18.3594 138.227 17.5625V16.7891L136.93 16.8438C135.898 16.8802 135.154 17.0417 134.695 17.3281C134.242 17.6094 134.016 18.0495 134.016 18.6484C134.016 19.1172 134.156 19.474 134.438 19.7188C134.724 19.9635 135.122 20.0859 135.633 20.0859ZM144.969 20.0859C145.198 20.0859 145.419 20.0703 145.633 20.0391C145.846 20.0026 146.016 19.9661 146.141 19.9297V20.9219C146 20.9896 145.792 21.0443 145.516 21.0859C145.245 21.1328 145 21.1562 144.781 21.1562C143.125 21.1562 142.297 20.2839 142.297 18.5391V13.4453H141.07V12.8203L142.297 12.2812L142.844 10.4531H143.594V12.4375H146.078V13.4453H143.594V18.4844C143.594 19 143.716 19.3958 143.961 19.6719C144.206 19.9479 144.542 20.0859 144.969 20.0859ZM151.477 21.1562C150.211 21.1562 149.211 20.7708 148.477 20C147.747 19.2292 147.383 18.1589 147.383 16.7891C147.383 15.4089 147.721 14.3125 148.398 13.5C149.081 12.6875 149.995 12.2812 151.141 12.2812C152.214 12.2812 153.062 12.6354 153.688 13.3438C154.312 14.0469 154.625 14.9766 154.625 16.1328V16.9531H148.727C148.753 17.9583 149.005 18.7214 149.484 19.2422C149.969 19.763 150.648 20.0234 151.523 20.0234C152.445 20.0234 153.357 19.8307 154.258 19.4453V20.6016C153.799 20.7995 153.365 20.9401 152.953 21.0234C152.547 21.112 152.055 21.1562 151.477 21.1562ZM151.125 13.3672C150.438 13.3672 149.888 13.5911 149.477 14.0391C149.07 14.487 148.831 15.1068 148.758 15.8984H153.234C153.234 15.0807 153.052 14.4557 152.688 14.0234C152.323 13.5859 151.802 13.3672 151.125 13.3672Z" fill="white"/>
<path d="M18.0156 18.9609C18.0156 19.9661 17.651 20.75 16.9219 21.3125C16.1927 21.875 15.2031 22.1562 13.9531 22.1562C12.599 22.1562 11.5573 21.9818 10.8281 21.6328V20.3516C11.2969 20.5495 11.8073 20.7057 12.3594 20.8203C12.9115 20.9349 13.4583 20.9922 14 20.9922C14.8854 20.9922 15.5521 20.8255 16 20.4922C16.4479 20.1536 16.6719 19.6849 16.6719 19.0859C16.6719 18.6901 16.5911 18.3672 16.4297 18.1172C16.2734 17.862 16.0078 17.6276 15.6328 17.4141C15.263 17.2005 14.6979 16.9583 13.9375 16.6875C12.875 16.3073 12.1146 15.8568 11.6562 15.3359C11.2031 14.8151 10.9766 14.1354 10.9766 13.2969C10.9766 12.4167 11.3073 11.7161 11.9688 11.1953C12.6302 10.6745 13.5052 10.4141 14.5938 10.4141C15.7292 10.4141 16.7734 10.6224 17.7266 11.0391L17.3125 12.1953C16.3698 11.7995 15.4531 11.6016 14.5625 11.6016C13.8594 11.6016 13.3099 11.7526 12.9141 12.0547C12.5182 12.3568 12.3203 12.776 12.3203 13.3125C12.3203 13.7083 12.3932 14.0339 12.5391 14.2891C12.6849 14.5391 12.9297 14.7708 13.2734 14.9844C13.6224 15.1927 14.1536 15.4245 14.8672 15.6797C16.0651 16.1068 16.888 16.5651 17.3359 17.0547C17.7891 17.5443 18.0156 18.1797 18.0156 18.9609ZM22.9219 21.0859C23.151 21.0859 23.3724 21.0703 23.5859 21.0391C23.7995 21.0026 23.9688 20.9661 24.0938 20.9297V21.9219C23.9531 21.9896 23.7448 22.0443 23.4688 22.0859C23.1979 22.1328 22.9531 22.1562 22.7344 22.1562C21.0781 22.1562 20.25 21.2839 20.25 19.5391V14.4453H19.0234V13.8203L20.25 13.2812L20.7969 11.4531H21.5469V13.4375H24.0312V14.4453H21.5469V19.4844C21.5469 20 21.6693 20.3958 21.9141 20.6719C22.1589 20.9479 22.4948 21.0859 22.9219 21.0859ZM31.0781 22L30.8203 20.7812H30.7578C30.3307 21.3177 29.9036 21.6823 29.4766 21.875C29.0547 22.0625 28.526 22.1562 27.8906 22.1562C27.0417 22.1562 26.375 21.9375 25.8906 21.5C25.4115 21.0625 25.1719 20.4401 25.1719 19.6328C25.1719 17.9036 26.5547 16.9974 29.3203 16.9141L30.7734 16.8672V16.3359C30.7734 15.6641 30.6276 15.1693 30.3359 14.8516C30.0495 14.5286 29.5885 14.3672 28.9531 14.3672C28.2396 14.3672 27.4323 14.5859 26.5312 15.0234L26.1328 14.0312C26.5547 13.8021 27.0156 13.6224 27.5156 13.4922C28.0208 13.362 28.526 13.2969 29.0312 13.2969C30.0521 13.2969 30.8073 13.5234 31.2969 13.9766C31.7917 14.4297 32.0391 15.1562 32.0391 16.1562V22H31.0781ZM28.1484 21.0859C28.9557 21.0859 29.5885 20.8646 30.0469 20.4219C30.5104 19.9792 30.7422 19.3594 30.7422 18.5625V17.7891L29.4453 17.8438C28.4141 17.8802 27.6693 18.0417 27.2109 18.3281C26.7578 18.6094 26.5312 19.0495 26.5312 19.6484C26.5312 20.1172 26.6719 20.474 26.9531 20.7188C27.2396 20.9635 27.638 21.0859 28.1484 21.0859ZM37.4844 21.0859C37.7135 21.0859 37.9349 21.0703 38.1484 21.0391C38.362 21.0026 38.5312 20.9661 38.6562 20.9297V21.9219C38.5156 21.9896 38.3073 22.0443 38.0312 22.0859C37.7604 22.1328 37.5156 22.1562 37.2969 22.1562C35.6406 22.1562 34.8125 21.2839 34.8125 19.5391V14.4453H33.5859V13.8203L34.8125 13.2812L35.3594 11.4531H36.1094V13.4375H38.5938V14.4453H36.1094V19.4844C36.1094 20 36.2318 20.3958 36.4766 20.6719C36.7214 20.9479 37.0573 21.0859 37.4844 21.0859ZM41.5938 13.4375V18.9922C41.5938 19.6901 41.7526 20.2109 42.0703 20.5547C42.388 20.8984 42.8854 21.0703 43.5625 21.0703C44.4583 21.0703 45.112 20.8255 45.5234 20.3359C45.9401 19.8464 46.1484 19.0469 46.1484 17.9375V13.4375H47.4453V22H46.375L46.1875 20.8516H46.1172C45.8516 21.2734 45.4818 21.5964 45.0078 21.8203C44.5391 22.0443 44.0026 22.1562 43.3984 22.1562C42.3568 22.1562 41.5755 21.9089 41.0547 21.4141C40.5391 20.9193 40.2812 20.1276 40.2812 19.0391V13.4375H41.5938ZM55.7266 19.6641C55.7266 20.4609 55.4297 21.0755 54.8359 21.5078C54.2422 21.9401 53.4089 22.1562 52.3359 22.1562C51.2005 22.1562 50.3151 21.9766 49.6797 21.6172V20.4141C50.0911 20.6224 50.5312 20.7865 51 20.9062C51.474 21.026 51.9297 21.0859 52.3672 21.0859C53.0443 21.0859 53.5651 20.9792 53.9297 20.7656C54.2943 20.5469 54.4766 20.2161 54.4766 19.7734C54.4766 19.4401 54.3307 19.1562 54.0391 18.9219C53.7526 18.6823 53.1901 18.401 52.3516 18.0781C51.5547 17.7812 50.987 17.5234 50.6484 17.3047C50.3151 17.0807 50.0651 16.8281 49.8984 16.5469C49.737 16.2656 49.6562 15.9297 49.6562 15.5391C49.6562 14.8411 49.9401 14.2917 50.5078 13.8906C51.0755 13.4844 51.8542 13.2812 52.8438 13.2812C53.7656 13.2812 54.6667 13.4688 55.5469 13.8438L55.0859 14.8984C54.2266 14.5443 53.4479 14.3672 52.75 14.3672C52.1354 14.3672 51.6719 14.4635 51.3594 14.6562C51.0469 14.849 50.8906 15.1146 50.8906 15.4531C50.8906 15.6823 50.9479 15.8776 51.0625 16.0391C51.1823 16.2005 51.3724 16.3542 51.6328 16.5C51.8932 16.6458 52.3932 16.8568 53.1328 17.1328C54.1484 17.5026 54.8333 17.875 55.1875 18.25C55.5469 18.625 55.7266 19.0964 55.7266 19.6641Z" fill="black"/>
<path d="M18.0156 17.9609C18.0156 18.9661 17.651 19.75 16.9219 20.3125C16.1927 20.875 15.2031 21.1562 13.9531 21.1562C12.599 21.1562 11.5573 20.9818 10.8281 20.6328V19.3516C11.2969 19.5495 11.8073 19.7057 12.3594 19.8203C12.9115 19.9349 13.4583 19.9922 14 19.9922C14.8854 19.9922 15.5521 19.8255 16 19.4922C16.4479 19.1536 16.6719 18.6849 16.6719 18.0859C16.6719 17.6901 16.5911 17.3672 16.4297 17.1172C16.2734 16.862 16.0078 16.6276 15.6328 16.4141C15.263 16.2005 14.6979 15.9583 13.9375 15.6875C12.875 15.3073 12.1146 14.8568 11.6562 14.3359C11.2031 13.8151 10.9766 13.1354 10.9766 12.2969C10.9766 11.4167 11.3073 10.7161 11.9688 10.1953C12.6302 9.67448 13.5052 9.41406 14.5938 9.41406C15.7292 9.41406 16.7734 9.6224 17.7266 10.0391L17.3125 11.1953C16.3698 10.7995 15.4531 10.6016 14.5625 10.6016C13.8594 10.6016 13.3099 10.7526 12.9141 11.0547C12.5182 11.3568 12.3203 11.776 12.3203 12.3125C12.3203 12.7083 12.3932 13.0339 12.5391 13.2891C12.6849 13.5391 12.9297 13.7708 13.2734 13.9844C13.6224 14.1927 14.1536 14.4245 14.8672 14.6797C16.0651 15.1068 16.888 15.5651 17.3359 16.0547C17.7891 16.5443 18.0156 17.1797 18.0156 17.9609ZM22.9219 20.0859C23.151 20.0859 23.3724 20.0703 23.5859 20.0391C23.7995 20.0026 23.9688 19.9661 24.0938 19.9297V20.9219C23.9531 20.9896 23.7448 21.0443 23.4688 21.0859C23.1979 21.1328 22.9531 21.1562 22.7344 21.1562C21.0781 21.1562 20.25 20.2839 20.25 18.5391V13.4453H19.0234V12.8203L20.25 12.2812L20.7969 10.4531H21.5469V12.4375H24.0312V13.4453H21.5469V18.4844C21.5469 19 21.6693 19.3958 21.9141 19.6719C22.1589 19.9479 22.4948 20.0859 22.9219 20.0859ZM31.0781 21L30.8203 19.7812H30.7578C30.3307 20.3177 29.9036 20.6823 29.4766 20.875C29.0547 21.0625 28.526 21.1562 27.8906 21.1562C27.0417 21.1562 26.375 20.9375 25.8906 20.5C25.4115 20.0625 25.1719 19.4401 25.1719 18.6328C25.1719 16.9036 26.5547 15.9974 29.3203 15.9141L30.7734 15.8672V15.3359C30.7734 14.6641 30.6276 14.1693 30.3359 13.8516C30.0495 13.5286 29.5885 13.3672 28.9531 13.3672C28.2396 13.3672 27.4323 13.5859 26.5312 14.0234L26.1328 13.0312C26.5547 12.8021 27.0156 12.6224 27.5156 12.4922C28.0208 12.362 28.526 12.2969 29.0312 12.2969C30.0521 12.2969 30.8073 12.5234 31.2969 12.9766C31.7917 13.4297 32.0391 14.1562 32.0391 15.1562V21H31.0781ZM28.1484 20.0859C28.9557 20.0859 29.5885 19.8646 30.0469 19.4219C30.5104 18.9792 30.7422 18.3594 30.7422 17.5625V16.7891L29.4453 16.8438C28.4141 16.8802 27.6693 17.0417 27.2109 17.3281C26.7578 17.6094 26.5312 18.0495 26.5312 18.6484C26.5312 19.1172 26.6719 19.474 26.9531 19.7188C27.2396 19.9635 27.638 20.0859 28.1484 20.0859ZM37.4844 20.0859C37.7135 20.0859 37.9349 20.0703 38.1484 20.0391C38.362 20.0026 38.5312 19.9661 38.6562 19.9297V20.9219C38.5156 20.9896 38.3073 21.0443 38.0312 21.0859C37.7604 21.1328 37.5156 21.1562 37.2969 21.1562C35.6406 21.1562 34.8125 20.2839 34.8125 18.5391V13.4453H33.5859V12.8203L34.8125 12.2812L35.3594 10.4531H36.1094V12.4375H38.5938V13.4453H36.1094V18.4844C36.1094 19 36.2318 19.3958 36.4766 19.6719C36.7214 19.9479 37.0573 20.0859 37.4844 20.0859ZM41.5938 12.4375V17.9922C41.5938 18.6901 41.7526 19.2109 42.0703 19.5547C42.388 19.8984 42.8854 20.0703 43.5625 20.0703C44.4583 20.0703 45.112 19.8255 45.5234 19.3359C45.9401 18.8464 46.1484 18.0469 46.1484 16.9375V12.4375H47.4453V21H46.375L46.1875 19.8516H46.1172C45.8516 20.2734 45.4818 20.5964 45.0078 20.8203C44.5391 21.0443 44.0026 21.1562 43.3984 21.1562C42.3568 21.1562 41.5755 20.9089 41.0547 20.4141C40.5391 19.9193 40.2812 19.1276 40.2812 18.0391V12.4375H41.5938ZM55.7266 18.6641C55.7266 19.4609 55.4297 20.0755 54.8359 20.5078C54.2422 20.9401 53.4089 21.1562 52.3359 21.1562C51.2005 21.1562 50.3151 20.9766 49.6797 20.6172V19.4141C50.0911 19.6224 50.5312 19.7865 51 19.9062C51.474 20.026 51.9297 20.0859 52.3672 20.0859C53.0443 20.0859 53.5651 19.9792 53.9297 19.7656C54.2943 19.5469 54.4766 19.2161 54.4766 18.7734C54.4766 18.4401 54.3307 18.1562 54.0391 17.9219C53.7526 17.6823 53.1901 17.401 52.3516 17.0781C51.5547 16.7812 50.987 16.5234 50.6484 16.3047C50.3151 16.0807 50.0651 15.8281 49.8984 15.5469C49.737 15.2656 49.6562 14.9297 49.6562 14.5391C49.6562 13.8411 49.9401 13.2917 50.5078 12.8906C51.0755 12.4844 51.8542 12.2812 52.8438 12.2812C53.7656 12.2812 54.6667 12.4688 55.5469 12.8438L55.0859 13.8984C54.2266 13.5443 53.4479 13.3672 52.75 13.3672C52.1354 13.3672 51.6719 13.4635 51.3594 13.6562C51.0469 13.849 50.8906 14.1146 50.8906 14.4531C50.8906 14.6823 50.9479 14.8776 51.0625 15.0391C51.1823 15.2005 51.3724 15.3542 51.6328 15.5C51.8932 15.6458 52.3932 15.8568 53.1328 16.1328C54.1484 16.5026 54.8333 16.875 55.1875 17.25C55.5469 17.625 55.7266 18.0964 55.7266 18.6641Z" fill="white"/>
<defs>
<linearGradient id="paint0_linear" x1="0" y1="0" x2="0" y2="30" gradientUnits="userSpaceOnUse">
<stop stop-color="#BBBBBB" stop-opacity="0.1"/>
<stop offset="1" stop-opacity="0.1"/>
</linearGradient>
</defs>
</svg>
