<svg width="167" height="30" viewBox="0 0 167 30" fill="none" xmlns="http://www.w3.org/2000/svg"><path d="M67 0h95a5 5 0 0 1 5 5v20a5 5 0 0 1-5 5H67V0z" fill="#4C1"/><path d="M0 5a5 5 0 0 1 5-5h62v30H5a5 5 0 0 1-5-5V5z" fill="#555"/><path d="M0 5a5 5 0 0 1 5-5h157a5 5 0 0 1 5 5v20a5 5 0 0 1-5 5H5a5 5 0 0 1-5-5V5z" fill="url(#a)"/><path d="M87.195 10.578v7.39c0 1.303-.393 2.326-1.18 3.071-.786.745-1.867 1.117-3.242 1.117s-2.44-.375-3.195-1.125c-.75-.75-1.125-1.781-1.125-3.093v-7.36h1.328v7.453c0 .953.26 1.685.781 2.196.521.51 1.287.765 2.297.765.964 0 1.706-.255 2.227-.765.52-.516.781-1.253.781-2.211v-7.438h1.328zm6.82 11.578a3.774 3.774 0 0 1-1.53-.304 2.91 2.91 0 0 1-1.157-.954h-.094c.063.5.094.974.094 1.422v3.524h-1.297V13.437h1.055l.18 1.172h.062c.334-.468.721-.807 1.164-1.015.443-.209.95-.313 1.524-.313 1.135 0 2.01.388 2.625 1.164.62.776.93 1.865.93 3.266 0 1.406-.316 2.5-.946 3.281-.625.776-1.495 1.164-2.61 1.164zm-.187-7.773c-.875 0-1.508.242-1.898.726-.39.485-.592 1.256-.602 2.313v.289c0 1.203.2 2.065.602 2.586.4.515 1.044.773 1.93.773.739 0 1.317-.3 1.734-.898.422-.6.633-1.425.633-2.477 0-1.067-.211-1.885-.633-2.453-.417-.573-1.005-.86-1.766-.86zm12.938 6.703c.229 0 .45-.016.664-.047a4.87 4.87 0 0 0 .508-.11v.993c-.141.068-.349.122-.626.164-.27.047-.515.07-.734.07-1.656 0-2.484-.872-2.484-2.617v-5.094h-1.227v-.625l1.227-.539.547-1.828h.75v1.985h2.484v1.007h-2.484v5.04c0 .515.122.91.367 1.187.245.276.581.414 1.008.414zm10.281-3.375c0 1.396-.352 2.487-1.055 3.273-.703.782-1.674 1.172-2.914 1.172-.766 0-1.445-.18-2.039-.539-.594-.36-1.052-.875-1.375-1.547-.323-.672-.484-1.458-.484-2.36 0-1.395.349-2.48 1.047-3.257.697-.781 1.666-1.172 2.906-1.172 1.198 0 2.148.399 2.851 1.196.709.796 1.063 1.875 1.063 3.234zm-6.524 0c0 1.094.219 1.927.657 2.5.437.573 1.08.86 1.929.86s1.493-.285 1.93-.852c.443-.573.664-1.41.664-2.508 0-1.089-.221-1.914-.664-2.477-.437-.567-1.086-.851-1.945-.851-.849 0-1.49.279-1.922.836-.432.557-.649 1.388-.649 2.492zm18.789 3.14h-.07c-.599.87-1.495 1.305-2.687 1.305-1.12 0-1.993-.383-2.617-1.148-.62-.766-.93-1.854-.93-3.266 0-1.411.312-2.508.937-3.289.625-.781 1.495-1.172 2.61-1.172 1.161 0 2.052.422 2.672 1.266h.101l-.055-.617-.031-.602V9.844h1.297V22h-1.055l-.172-1.148zm-2.593.22c.885 0 1.526-.24 1.922-.72.401-.484.601-1.262.601-2.335v-.274c0-1.213-.203-2.078-.609-2.594-.401-.52-1.044-.78-1.93-.78-.76 0-1.344.296-1.75.89-.401.588-.601 1.422-.601 2.5 0 1.094.2 1.92.601 2.476.401.558.99.836 1.766.836zm11.843.929l-.257-1.219h-.063c-.427.537-.854.901-1.281 1.094-.422.188-.951.281-1.586.281-.849 0-1.516-.218-2-.656-.479-.438-.719-1.06-.719-1.867 0-1.73 1.383-2.636 4.149-2.719l1.453-.047v-.531c0-.672-.146-1.167-.438-1.484-.286-.323-.747-.485-1.382-.485-.714 0-1.521.219-2.422.656l-.399-.992c.422-.229.883-.409 1.383-.539a6.049 6.049 0 0 1 1.516-.195c1.02 0 1.776.226 2.265.68.495.453.742 1.18.742 2.18V22h-.961zm-2.929-.914c.807 0 1.44-.221 1.898-.664.464-.443.696-1.063.696-1.86v-.773l-1.297.055c-1.032.036-1.776.198-2.235.484-.453.281-.679.721-.679 1.32 0 .47.14.826.422 1.07.286.245.684.368 1.195.368zm9.336 0c.229 0 .45-.016.664-.047.213-.036.383-.073.508-.11v.993c-.141.068-.349.122-.625.164-.271.047-.516.07-.735.07-1.656 0-2.484-.872-2.484-2.617v-5.094h-1.227v-.625l1.227-.539.547-1.828h.75v1.985h2.484v1.007h-2.484v5.04c0 .515.122.91.367 1.187.245.276.581.414 1.008.414zm6.508 1.07c-1.266 0-2.266-.385-3-1.156-.73-.77-1.094-1.841-1.094-3.21 0-1.381.338-2.477 1.015-3.29.683-.813 1.597-1.219 2.743-1.219 1.073 0 1.921.354 2.547 1.063.624.703.937 1.633.937 2.789v.82h-5.898c.026 1.005.278 1.768.757 2.29.485.52 1.164.78 2.039.78a6.9 6.9 0 0 0 2.735-.578v1.157a6.633 6.633 0 0 1-1.305.421c-.406.089-.898.133-1.476.133zm-.352-7.789c-.687 0-1.237.224-1.648.672-.407.448-.646 1.068-.719 1.86h4.476c0-.818-.182-1.443-.546-1.876-.365-.437-.886-.656-1.563-.656z" fill="#010101" fill-opacity=".3"/><path d="M87.195 9.578v7.39c0 1.303-.393 2.326-1.18 3.071-.786.745-1.867 1.117-3.242 1.117s-2.44-.375-3.195-1.125c-.75-.75-1.125-1.781-1.125-3.093v-7.36h1.328v7.453c0 .953.26 1.685.781 2.196.521.51 1.287.765 2.297.765.964 0 1.706-.255 2.227-.765.52-.516.781-1.253.781-2.211V9.578h1.328zm6.82 11.578a3.774 3.774 0 0 1-1.53-.304 2.91 2.91 0 0 1-1.157-.954h-.094c.063.5.094.974.094 1.422v3.524h-1.297V12.437h1.055l.18 1.172h.062c.334-.468.721-.807 1.164-1.015.443-.209.95-.313 1.524-.313 1.135 0 2.01.388 2.625 1.164.62.776.93 1.865.93 3.266 0 1.406-.316 2.5-.946 3.281-.625.776-1.495 1.164-2.61 1.164zm-.187-7.773c-.875 0-1.508.242-1.898.726-.39.485-.592 1.256-.602 2.313v.289c0 1.203.2 2.065.602 2.586.4.515 1.044.773 1.93.773.739 0 1.317-.3 1.734-.898.422-.6.633-1.425.633-2.477 0-1.067-.211-1.885-.633-2.453-.417-.573-1.005-.86-1.766-.86zm12.938 6.703c.229 0 .45-.016.664-.047a4.87 4.87 0 0 0 .508-.11v.993c-.141.068-.349.122-.626.164-.27.047-.515.07-.734.07-1.656 0-2.484-.872-2.484-2.617v-5.094h-1.227v-.625l1.227-.539.547-1.828h.75v1.985h2.484v1.007h-2.484v5.04c0 .515.122.91.367 1.187.245.276.581.414 1.008.414zm10.281-3.375c0 1.396-.352 2.487-1.055 3.273-.703.782-1.674 1.172-2.914 1.172-.766 0-1.445-.18-2.039-.539-.594-.36-1.052-.875-1.375-1.547-.323-.672-.484-1.458-.484-2.36 0-1.395.349-2.48 1.047-3.257.697-.781 1.666-1.172 2.906-1.172 1.198 0 2.148.399 2.851 1.196.709.796 1.063 1.875 1.063 3.234zm-6.524 0c0 1.094.219 1.927.657 2.5.437.573 1.08.86 1.929.86s1.493-.285 1.93-.852c.443-.573.664-1.41.664-2.508 0-1.089-.221-1.914-.664-2.477-.437-.567-1.086-.851-1.945-.851-.849 0-1.49.279-1.922.836-.432.557-.649 1.388-.649 2.492zm18.789 3.14h-.07c-.599.87-1.495 1.305-2.687 1.305-1.12 0-1.993-.383-2.617-1.148-.62-.766-.93-1.854-.93-3.266 0-1.411.312-2.508.937-3.289.625-.781 1.495-1.172 2.61-1.172 1.161 0 2.052.422 2.672 1.266h.101l-.055-.617-.031-.602V8.844h1.297V21h-1.055l-.172-1.148zm-2.593.22c.885 0 1.526-.24 1.922-.72.401-.484.601-1.262.601-2.335v-.274c0-1.213-.203-2.078-.609-2.594-.401-.52-1.044-.78-1.93-.78-.76 0-1.344.296-1.75.89-.401.588-.601 1.422-.601 2.5 0 1.094.2 1.92.601 2.476.401.558.99.836 1.766.836zm11.843.929l-.257-1.219h-.063c-.427.537-.854.901-1.281 1.094-.422.188-.951.281-1.586.281-.849 0-1.516-.218-2-.656-.479-.438-.719-1.06-.719-1.867 0-1.73 1.383-2.636 4.149-2.719l1.453-.047v-.531c0-.672-.146-1.167-.438-1.484-.286-.323-.747-.485-1.382-.485-.714 0-1.521.219-2.422.656l-.399-.992c.422-.229.883-.409 1.383-.539a6.049 6.049 0 0 1 1.516-.195c1.02 0 1.776.226 2.265.68.495.453.742 1.18.742 2.18V21h-.961zm-2.929-.914c.807 0 1.44-.221 1.898-.664.464-.443.696-1.063.696-1.86v-.773l-1.297.055c-1.032.036-1.776.198-2.235.484-.453.281-.679.721-.679 1.32 0 .47.14.826.422 1.07.286.245.684.368 1.195.368zm9.336 0c.229 0 .45-.016.664-.047.213-.036.383-.073.508-.11v.993c-.141.068-.349.122-.625.164-.271.047-.516.07-.735.07-1.656 0-2.484-.872-2.484-2.617v-5.094h-1.227v-.625l1.227-.539.547-1.828h.75v1.985h2.484v1.007h-2.484v5.04c0 .515.122.91.367 1.187.245.276.581.414 1.008.414zm6.508 1.07c-1.266 0-2.266-.385-3-1.156-.73-.77-1.094-1.841-1.094-3.21 0-1.381.338-2.477 1.015-3.29.683-.813 1.597-1.219 2.743-1.219 1.073 0 1.921.354 2.547 1.063.624.703.937 1.633.937 2.789v.82h-5.898c.026 1.005.278 1.768.757 2.29.485.52 1.164.78 2.039.78a6.9 6.9 0 0 0 2.735-.578v1.157a6.633 6.633 0 0 1-1.305.421c-.406.089-.898.133-1.476.133zm-.352-7.789c-.687 0-1.237.224-1.648.672-.407.448-.646 1.068-.719 1.86h4.476c0-.818-.182-1.443-.546-1.876-.365-.437-.886-.656-1.563-.656z" fill="#fff"/><path d="M18.016 18.96c0 1.006-.365 1.79-1.094 2.352-.73.563-1.719.844-2.969.844-1.354 0-2.396-.174-3.125-.523v-1.281c.469.197.98.354 1.531.468a8.055 8.055 0 0 0 1.641.172c.885 0 1.552-.166 2-.5.448-.338.672-.807.672-1.406 0-.396-.08-.719-.242-.969-.157-.255-.422-.49-.797-.703-.37-.213-.935-.456-1.695-.727-1.063-.38-1.823-.83-2.282-1.351-.453-.52-.68-1.2-.68-2.04 0-.88.331-1.58.993-2.1.661-.521 1.536-.782 2.625-.782 1.135 0 2.18.208 3.133.625l-.415 1.156c-.942-.396-1.859-.593-2.75-.593-.703 0-1.252.15-1.648.453-.396.302-.594.721-.594 1.258 0 .395.073.72.22.976.145.25.39.482.733.695.35.209.88.44 1.594.696 1.198.427 2.021.885 2.469 1.375.453.49.68 1.125.68 1.906zm4.906 2.126c.229 0 .45-.016.664-.047.213-.036.383-.073.508-.11v.993c-.14.068-.35.122-.625.164-.271.047-.516.07-.735.07-1.656 0-2.484-.872-2.484-2.617v-5.094h-1.227v-.625l1.227-.539.547-1.828h.75v1.985h2.484v1.007h-2.484v5.04c0 .515.122.91.367 1.187.245.276.58.414 1.008.414zm8.156.914l-.258-1.219h-.062c-.427.537-.854.901-1.281 1.094-.422.188-.951.281-1.586.281-.85 0-1.516-.218-2-.656-.48-.438-.72-1.06-.72-1.867 0-1.73 1.384-2.636 4.15-2.719l1.452-.047v-.531c0-.672-.145-1.167-.437-1.484-.287-.323-.747-.485-1.383-.485-.713 0-1.52.219-2.422.656l-.398-.992c.422-.229.883-.409 1.383-.539a6.052 6.052 0 0 1 1.515-.195c1.021 0 1.776.226 2.266.68.495.453.742 1.18.742 2.18V22h-.96zm-2.93-.914c.808 0 1.44-.221 1.899-.664.463-.443.695-1.063.695-1.86v-.773l-1.297.055c-1.03.036-1.776.198-2.234.484-.453.281-.68.721-.68 1.32 0 .47.14.826.422 1.07.287.245.685.368 1.195.368zm9.336 0c.23 0 .45-.016.664-.047.214-.036.383-.073.508-.11v.993c-.14.068-.349.122-.625.164-.27.047-.515.07-.734.07-1.656 0-2.484-.872-2.484-2.617v-5.094h-1.227v-.625l1.227-.539.546-1.828h.75v1.985h2.485v1.007h-2.485v5.04c0 .515.123.91.368 1.187.244.276.58.414 1.007.414zm4.11-7.648v5.554c0 .698.159 1.219.476 1.563.318.343.815.515 1.492.515.896 0 1.55-.244 1.961-.734.417-.49.625-1.29.625-2.398v-4.5h1.297V22h-1.07l-.188-1.148h-.07a2.58 2.58 0 0 1-1.11.968c-.468.224-1.004.336-1.609.336-1.041 0-1.823-.247-2.343-.742-.516-.495-.774-1.286-.774-2.375v-5.602h1.313zm14.133 6.226c0 .797-.297 1.412-.891 1.844-.594.432-1.427.648-2.5.648-1.136 0-2.02-.18-2.656-.539v-1.203a6.44 6.44 0 0 0 1.32.492c.474.12.93.18 1.367.18.677 0 1.198-.107 1.563-.32.364-.22.547-.55.547-.993 0-.333-.146-.617-.438-.851-.286-.24-.849-.521-1.687-.844-.797-.297-1.365-.555-1.704-.773-.333-.224-.583-.477-.75-.758-.161-.281-.242-.617-.242-1.008 0-.698.284-1.247.852-1.648.567-.407 1.346-.61 2.336-.61.922 0 1.823.188 2.703.563l-.461 1.054c-.86-.354-1.638-.53-2.336-.53-.615 0-1.078.095-1.39.288-.313.193-.47.459-.47.797 0 .23.058.425.172.586.12.162.31.315.57.461.261.146.761.357 1.5.633 1.016.37 1.701.742 2.056 1.117.359.375.539.846.539 1.414z" fill="#000"/><path d="M18.016 17.96c0 1.006-.365 1.79-1.094 2.352-.73.563-1.719.844-2.969.844-1.354 0-2.396-.174-3.125-.523v-1.281c.469.197.98.354 1.531.468a8.055 8.055 0 0 0 1.641.172c.885 0 1.552-.166 2-.5.448-.338.672-.807.672-1.406 0-.396-.08-.719-.242-.969-.157-.255-.422-.49-.797-.703-.37-.213-.935-.456-1.695-.727-1.063-.38-1.823-.83-2.282-1.351-.453-.52-.68-1.2-.68-2.04 0-.88.331-1.58.993-2.1.661-.522 1.536-.782 2.625-.782 1.135 0 2.18.208 3.133.625l-.415 1.156c-.942-.396-1.859-.593-2.75-.593-.703 0-1.252.15-1.648.453-.396.302-.594.721-.594 1.258 0 .395.073.72.22.976.145.25.39.482.733.695.35.209.88.44 1.594.696 1.198.427 2.021.885 2.469 1.375.453.49.68 1.125.68 1.906zm4.906 2.126c.229 0 .45-.016.664-.047.213-.036.383-.073.508-.11v.993c-.14.068-.35.122-.625.164-.271.047-.516.07-.735.07-1.656 0-2.484-.872-2.484-2.617v-5.094h-1.227v-.625l1.227-.539.547-1.828h.75v1.985h2.484v1.007h-2.484v5.04c0 .515.122.91.367 1.187.245.276.58.414 1.008.414zm8.156.914l-.258-1.219h-.062c-.427.537-.854.901-1.281 1.094-.422.188-.951.281-1.586.281-.85 0-1.516-.218-2-.656-.48-.438-.72-1.06-.72-1.867 0-1.73 1.384-2.636 4.15-2.719l1.452-.047v-.531c0-.672-.145-1.167-.437-1.484-.287-.323-.747-.485-1.383-.485-.713 0-1.52.219-2.422.656l-.398-.992c.422-.229.883-.409 1.383-.539a6.052 6.052 0 0 1 1.515-.195c1.021 0 1.776.226 2.266.68.495.453.742 1.18.742 2.18V21h-.96zm-2.93-.914c.808 0 1.44-.221 1.899-.664.463-.443.695-1.063.695-1.86v-.773l-1.297.055c-1.03.036-1.776.198-2.234.484-.453.281-.68.721-.68 1.32 0 .47.14.826.422 1.07.287.245.685.368 1.195.368zm9.336 0c.23 0 .45-.016.664-.047.214-.036.383-.073.508-.11v.993c-.14.068-.349.122-.625.164-.27.047-.515.07-.734.07-1.656 0-2.484-.872-2.484-2.617v-5.094h-1.227v-.625l1.227-.539.546-1.828h.75v1.985h2.485v1.007h-2.485v5.04c0 .515.123.91.368 1.187.244.276.58.414 1.007.414zm4.11-7.648v5.554c0 .698.159 1.219.476 1.563.318.343.815.515 1.492.515.896 0 1.55-.244 1.961-.734.417-.49.625-1.29.625-2.398v-4.5h1.297V21h-1.07l-.188-1.148h-.07a2.58 2.58 0 0 1-1.11.968c-.468.224-1.004.336-1.609.336-1.041 0-1.823-.247-2.343-.742-.516-.495-.774-1.286-.774-2.375v-5.602h1.313zm14.133 6.226c0 .797-.297 1.412-.891 1.844-.594.432-1.427.648-2.5.648-1.136 0-2.02-.18-2.656-.539v-1.203a6.44 6.44 0 0 0 1.32.492c.474.12.93.18 1.367.18.677 0 1.198-.107 1.563-.32.364-.22.547-.55.547-.993 0-.333-.146-.617-.438-.851-.286-.24-.849-.521-1.687-.844-.797-.297-1.365-.555-1.704-.773-.333-.224-.583-.477-.75-.758-.161-.281-.242-.617-.242-1.008 0-.698.284-1.247.852-1.648.567-.407 1.346-.61 2.336-.61.922 0 1.823.188 2.703.563l-.461 1.054c-.86-.354-1.638-.53-2.336-.53-.615 0-1.078.095-1.39.288-.313.193-.47.459-.47.797 0 .23.058.425.172.586.12.162.31.315.57.461.261.146.761.357 1.5.633 1.016.37 1.701.742 2.056 1.117.359.375.539.846.539 1.414z" fill="#fff"/><defs><linearGradient id="a" x2="0" y2="30" gradientUnits="userSpaceOnUse"><stop stop-color="#BBB" stop-opacity=".1"/><stop offset="1" stop-opacity=".1"/></linearGradient></defs></svg>