<?xml version="1.0" standalone="no"?><!DOCTYPE svg PUBLIC "-//W3C//DTD SVG 1.1//EN" "http://www.w3.org/Graphics/SVG/1.1/DTD/svg11.dtd"><svg class="w-40 " viewBox="0 0 878 200" fill="none" version="1.1" xmlns="http://www.w3.org/2000/svg" xmlns:xlink="http://www.w3.org/1999/xlink" style="block-size:36.4375px;caret-color:rgb(252, 165, 165);color:rgb(252, 165, 165);column-rule-color:rgb(252, 165, 165);cursor:pointer;fill:none;height:36.4375px;inline-size:160px;outline-color:rgb(252, 165, 165);perspective-origin:80px 18.2188px;text-decoration:none solid rgb(252, 165, 165);text-decoration-color:rgb(252, 165, 165);text-emphasis-color:rgb(252, 165, 165);transform-origin:80px 18.2188px;width:160px;-webkit-text-fill-color:rgb(252, 165, 165);-webkit-text-stroke-color:rgb(252, 165, 165);">
    <path d="M617.14 137.55C617.656 137.55 617.965 137.344 618.171 137.035C618.377 136.726 618.377 136.211 618.171 135.799L602.512 106.851L603.542 106.439C613.226 102.524 619.201 94.3855 619.201 85.2169C619.201 72.6487 608.899 62.45 596.228 62.45H563.262C562.541 62.45 562.129 63.0681 562.129 63.5831V136.417C562.129 136.932 562.541 137.55 563.262 137.55H576.345C576.86 137.55 577.479 137.035 577.479 136.417V107.366H586.647L601.585 137.035C601.688 137.138 601.997 137.447 602.409 137.447H617.14V137.55ZM594.786 95.4157H577.479V76.2543H594.786C599.936 76.2543 604.16 80.4781 604.16 85.629C604.16 90.8829 599.73 95.4157 594.786 95.4157Z" class="fill-black dark:fill-white" style="block-size:auto;caret-color:rgb(252, 165, 165);color:rgb(252, 165, 165);column-rule-color:rgb(252, 165, 165);cursor:pointer;d:path(&quot;M 617.14 137.55 C 617.656 137.55 617.965 137.344 618.171 137.035 C 618.377 136.726 618.377 136.211 618.171 135.799 L 602.512 106.851 L 603.542 106.439 C 613.226 102.524 619.201 94.3855 619.201 85.2169 C 619.201 72.6487 608.899 62.45 596.228 62.45 H 563.262 C 562.541 62.45 562.129 63.0681 562.129 63.5831 V 136.417 C 562.129 136.932 562.541 137.55 563.262 137.55 H 576.345 C 576.86 137.55 577.479 137.035 577.479 136.417 V 107.366 H 586.647 L 601.585 137.035 C 601.688 137.138 601.997 137.447 602.409 137.447 H 617.14 V 137.55 Z M 594.786 95.4157 H 577.479 V 76.2543 H 594.786 C 599.936 76.2543 604.16 80.4781 604.16 85.629 C 604.16 90.8829 599.73 95.4157 594.786 95.4157 Z&quot;);display:inline;fill:rgb(255, 255, 255);height:auto;inline-size:auto;outline-color:rgb(252, 165, 165);overflow-clip-margin:0px;overflow-x:visible;overflow-y:visible;perspective-origin:0px 0px;text-decoration:none solid rgb(252, 165, 165);text-decoration-color:rgb(252, 165, 165);text-emphasis-color:rgb(252, 165, 165);transform-origin:0px 0px;vertical-align:baseline;width:auto;-webkit-text-fill-color:rgb(252, 165, 165);-webkit-text-stroke-color:rgb(252, 165, 165);"/>
    <path d="M537.893 137.55C538.614 137.55 539.026 136.932 539.026 136.417V124.467C539.026 123.952 538.614 123.333 537.893 123.333H506.472V106.439H532.536C533.051 106.439 533.669 106.026 533.669 105.305V93.4583C533.669 92.9432 533.154 92.3251 532.536 92.3251H506.472V76.6664H537.996C538.717 76.6664 539.129 76.1513 539.129 75.5332V63.5831C539.129 63.0681 538.717 62.45 537.996 62.45H492.462C491.741 62.45 491.329 62.965 491.329 63.5831V136.417C491.329 136.932 491.741 137.55 492.462 137.55H537.893Z" class="fill-black dark:fill-white" style="block-size:auto;caret-color:rgb(252, 165, 165);color:rgb(252, 165, 165);column-rule-color:rgb(252, 165, 165);cursor:pointer;d:path(&quot;M 537.893 137.55 C 538.614 137.55 539.026 136.932 539.026 136.417 V 124.467 C 539.026 123.952 538.614 123.333 537.893 123.333 H 506.472 V 106.439 H 532.536 C 533.051 106.439 533.669 106.026 533.669 105.305 V 93.4583 C 533.669 92.9432 533.154 92.3251 532.536 92.3251 H 506.472 V 76.6664 H 537.996 C 538.717 76.6664 539.129 76.1513 539.129 75.5332 V 63.5831 C 539.129 63.0681 538.717 62.45 537.996 62.45 H 492.462 C 491.741 62.45 491.329 62.965 491.329 63.5831 V 136.417 C 491.329 136.932 491.741 137.55 492.462 137.55 H 537.893 Z&quot;);display:inline;fill:rgb(255, 255, 255);height:auto;inline-size:auto;outline-color:rgb(252, 165, 165);overflow-clip-margin:0px;overflow-x:visible;overflow-y:visible;perspective-origin:0px 0px;text-decoration:none solid rgb(252, 165, 165);text-decoration-color:rgb(252, 165, 165);text-emphasis-color:rgb(252, 165, 165);transform-origin:0px 0px;vertical-align:baseline;width:auto;-webkit-text-fill-color:rgb(252, 165, 165);-webkit-text-stroke-color:rgb(252, 165, 165);"/>
    <path d="M468.328 75.6362V63.5831C468.328 63.0681 467.916 62.45 467.195 62.45H418.365C417.644 62.45 417.231 62.965 417.231 63.5831V75.5332C417.231 76.0483 417.644 76.6664 418.365 76.6664H435.054V136.417C435.054 136.932 435.569 137.55 436.187 137.55H449.373C449.888 137.55 450.506 137.035 450.506 136.417V76.6664H467.195C467.916 76.6664 468.328 76.1513 468.328 75.6362Z" class="fill-black dark:fill-white" style="block-size:auto;caret-color:rgb(252, 165, 165);color:rgb(252, 165, 165);column-rule-color:rgb(252, 165, 165);cursor:pointer;d:path(&quot;M 468.328 75.6362 V 63.5831 C 468.328 63.0681 467.916 62.45 467.195 62.45 H 418.365 C 417.644 62.45 417.231 62.965 417.231 63.5831 V 75.5332 C 417.231 76.0483 417.644 76.6664 418.365 76.6664 H 435.054 V 136.417 C 435.054 136.932 435.569 137.55 436.187 137.55 H 449.373 C 449.888 137.55 450.506 137.035 450.506 136.417 V 76.6664 H 467.195 C 467.916 76.6664 468.328 76.1513 468.328 75.6362 Z&quot;);display:inline;fill:rgb(255, 255, 255);height:auto;inline-size:auto;outline-color:rgb(252, 165, 165);overflow-clip-margin:0px;overflow-x:visible;overflow-y:visible;perspective-origin:0px 0px;text-decoration:none solid rgb(252, 165, 165);text-decoration-color:rgb(252, 165, 165);text-emphasis-color:rgb(252, 165, 165);transform-origin:0px 0px;vertical-align:baseline;width:auto;-webkit-text-fill-color:rgb(252, 165, 165);-webkit-text-stroke-color:rgb(252, 165, 165);"/>
    <path d="M393.099 76.6664C393.82 76.6664 394.232 76.1513 394.232 75.5332V63.5831C394.232 63.0681 393.82 62.45 393.099 62.45H347.565C346.844 62.45 346.432 62.965 346.432 63.5831V136.417C346.432 136.932 346.844 137.55 347.565 137.55H360.545C361.06 137.55 361.678 137.035 361.678 136.417V108.705H387.742C388.257 108.705 388.875 108.19 388.875 107.572V95.6217C388.875 95.1066 388.36 94.4885 387.742 94.4885H361.678V76.6664H393.099Z" class="fill-black dark:fill-white" style="block-size:auto;caret-color:rgb(252, 165, 165);color:rgb(252, 165, 165);column-rule-color:rgb(252, 165, 165);cursor:pointer;d:path(&quot;M 393.099 76.6664 C 393.82 76.6664 394.232 76.1513 394.232 75.5332 V 63.5831 C 394.232 63.0681 393.82 62.45 393.099 62.45 H 347.565 C 346.844 62.45 346.432 62.965 346.432 63.5831 V 136.417 C 346.432 136.932 346.844 137.55 347.565 137.55 H 360.545 C 361.06 137.55 361.678 137.035 361.678 136.417 V 108.705 H 387.742 C 388.257 108.705 388.875 108.19 388.875 107.572 V 95.6217 C 388.875 95.1066 388.36 94.4885 387.742 94.4885 H 361.678 V 76.6664 H 393.099 Z&quot;);display:inline;fill:rgb(255, 255, 255);height:auto;inline-size:auto;outline-color:rgb(252, 165, 165);overflow-clip-margin:0px;overflow-x:visible;overflow-y:visible;perspective-origin:0px 0px;text-decoration:none solid rgb(252, 165, 165);text-decoration-color:rgb(252, 165, 165);text-emphasis-color:rgb(252, 165, 165);transform-origin:0px 0px;vertical-align:baseline;width:auto;-webkit-text-fill-color:rgb(252, 165, 165);-webkit-text-stroke-color:rgb(252, 165, 165);"/>
    <path d="M322.365 137.55C322.771 137.55 323.178 137.448 323.279 137.143C323.482 136.839 323.482 136.534 323.279 136.127L289.337 63.0597C289.134 62.7548 288.727 62.45 288.422 62.45H287.304C286.999 62.45 286.491 62.7548 286.39 63.0597L252.447 136.127C252.244 136.534 252.244 136.839 252.447 137.143C252.651 137.448 252.955 137.55 253.362 137.55H265.252C267.081 137.55 267.894 136.432 268.301 135.517L272.467 126.27H303.259L307.426 135.416C308.34 137.245 308.849 137.55 310.373 137.55H322.365ZM278.057 113.465L287.101 93.5468H288.321L288.727 94.1566L297.67 113.465H278.057V113.465Z" class="fill-black dark:fill-white" style="block-size:auto;caret-color:rgb(252, 165, 165);color:rgb(252, 165, 165);column-rule-color:rgb(252, 165, 165);cursor:pointer;d:path(&quot;M 322.365 137.55 C 322.771 137.55 323.178 137.448 323.279 137.143 C 323.482 136.839 323.482 136.534 323.279 136.127 L 289.337 63.0597 C 289.134 62.7548 288.727 62.45 288.422 62.45 H 287.304 C 286.999 62.45 286.491 62.7548 286.39 63.0597 L 252.447 136.127 C 252.244 136.534 252.244 136.839 252.447 137.143 C 252.651 137.448 252.955 137.55 253.362 137.55 H 265.252 C 267.081 137.55 267.894 136.432 268.301 135.517 L 272.467 126.27 H 303.259 L 307.426 135.416 C 308.34 137.245 308.849 137.55 310.373 137.55 H 322.365 Z M 278.057 113.465 L 287.101 93.5468 H 288.321 L 288.727 94.1566 L 297.67 113.465 H 278.057 V 113.465 Z&quot;);display:inline;fill:rgb(255, 255, 255);height:auto;inline-size:auto;outline-color:rgb(252, 165, 165);overflow-clip-margin:0px;overflow-x:visible;overflow-y:visible;perspective-origin:0px 0px;text-decoration:none solid rgb(252, 165, 165);text-decoration-color:rgb(252, 165, 165);text-emphasis-color:rgb(252, 165, 165);transform-origin:0px 0px;vertical-align:baseline;width:auto;-webkit-text-fill-color:rgb(252, 165, 165);-webkit-text-stroke-color:rgb(252, 165, 165);"/>
    <path d="M227.234 137.55C227.749 137.55 228.058 137.344 228.264 137.035C228.47 136.726 228.47 136.211 228.264 135.799L212.606 106.851L213.636 106.439C223.32 102.524 229.295 94.3855 229.295 85.2169C229.295 72.6487 218.993 62.45 206.322 62.45H173.356C172.635 62.45 172.223 63.0681 172.223 63.5831V136.417C172.223 136.932 172.635 137.55 173.356 137.55H186.439C186.954 137.55 187.572 137.035 187.572 136.417V107.366H196.741L211.678 137.035C211.782 137.138 212.091 137.447 212.503 137.447H227.234V137.55ZM204.879 95.4157H187.572V76.2543H204.879C210.03 76.2543 214.254 80.4781 214.254 85.629C214.254 90.8829 209.824 95.4157 204.879 95.4157Z" class="fill-black dark:fill-white" style="block-size:auto;caret-color:rgb(252, 165, 165);color:rgb(252, 165, 165);column-rule-color:rgb(252, 165, 165);cursor:pointer;d:path(&quot;M 227.234 137.55 C 227.749 137.55 228.058 137.344 228.264 137.035 C 228.47 136.726 228.47 136.211 228.264 135.799 L 212.606 106.851 L 213.636 106.439 C 223.32 102.524 229.295 94.3855 229.295 85.2169 C 229.295 72.6487 218.993 62.45 206.322 62.45 H 173.356 C 172.635 62.45 172.223 63.0681 172.223 63.5831 V 136.417 C 172.223 136.932 172.635 137.55 173.356 137.55 H 186.439 C 186.954 137.55 187.572 137.035 187.572 136.417 V 107.366 H 196.741 L 211.678 137.035 C 211.782 137.138 212.091 137.447 212.503 137.447 H 227.234 V 137.55 Z M 204.879 95.4157 H 187.572 V 76.2543 H 204.879 C 210.03 76.2543 214.254 80.4781 214.254 85.629 C 214.254 90.8829 209.824 95.4157 204.879 95.4157 Z&quot;);display:inline;fill:rgb(255, 255, 255);height:auto;inline-size:auto;outline-color:rgb(252, 165, 165);overflow-clip-margin:0px;overflow-x:visible;overflow-y:visible;perspective-origin:0px 0px;text-decoration:none solid rgb(252, 165, 165);text-decoration-color:rgb(252, 165, 165);text-emphasis-color:rgb(252, 165, 165);transform-origin:0px 0px;vertical-align:baseline;width:auto;-webkit-text-fill-color:rgb(252, 165, 165);-webkit-text-stroke-color:rgb(252, 165, 165);"/>
    <path d="M123.523 137.55C133.223 137.55 142.023 134.05 148.823 127.45C149.223 127.05 149.223 126.25 148.923 125.95L140.623 117.05C140.523 116.85 140.223 116.75 139.923 116.75C139.623 116.75 139.323 116.85 139.123 116.95C135.223 120.35 129.623 122.35 124.223 122.35C111.923 122.35 102.223 112.35 102.223 99.6499C102.223 86.7499 111.823 76.6499 124.123 76.6499C129.623 76.6499 135.123 78.75 139.223 82.35C139.623 82.75 140.223 82.75 140.523 82.35L148.823 73.7499C149.023 73.5499 149.223 73.25 149.223 72.95C149.223 72.65 149.123 72.3499 148.823 72.1499C141.423 65.4499 133.723 62.45 123.623 62.45C102.823 62.55 86.0229 79.4499 86.0229 100.15C86.0229 120.75 102.823 137.55 123.523 137.55Z" class="fill-black dark:fill-white" style="block-size:auto;caret-color:rgb(252, 165, 165);color:rgb(252, 165, 165);column-rule-color:rgb(252, 165, 165);cursor:pointer;d:path(&quot;M 123.523 137.55 C 133.223 137.55 142.023 134.05 148.823 127.45 C 149.223 127.05 149.223 126.25 148.923 125.95 L 140.623 117.05 C 140.523 116.85 140.223 116.75 139.923 116.75 C 139.623 116.75 139.323 116.85 139.123 116.95 C 135.223 120.35 129.623 122.35 124.223 122.35 C 111.923 122.35 102.223 112.35 102.223 99.6499 C 102.223 86.7499 111.823 76.6499 124.123 76.6499 C 129.623 76.6499 135.123 78.75 139.223 82.35 C 139.623 82.75 140.223 82.75 140.523 82.35 L 148.823 73.7499 C 149.023 73.5499 149.223 73.25 149.223 72.95 C 149.223 72.65 149.123 72.3499 148.823 72.1499 C 141.423 65.4499 133.723 62.45 123.623 62.45 C 102.823 62.55 86.0229 79.4499 86.0229 100.15 C 86.0229 120.75 102.823 137.55 123.523 137.55 Z&quot;);display:inline;fill:rgb(255, 255, 255);height:auto;inline-size:auto;outline-color:rgb(252, 165, 165);overflow-clip-margin:0px;overflow-x:visible;overflow-y:visible;perspective-origin:0px 0px;text-decoration:none solid rgb(252, 165, 165);text-decoration-color:rgb(252, 165, 165);text-emphasis-color:rgb(252, 165, 165);transform-origin:0px 0px;vertical-align:baseline;width:auto;-webkit-text-fill-color:rgb(252, 165, 165);-webkit-text-stroke-color:rgb(252, 165, 165);"/>
    <path d="M679.801 62.55C690.301 62.55 697.901 66.15 705.001 72.25C705.801 73.05 705.901 74.35 705.101 75.15L702.301 77.9501C701.501 78.9501 700.601 78.8501 699.601 77.8501C694.201 73.1501 686.801 70.05 679.701 70.05C663.301 70.05 650.701 83.85 650.701 100.05C650.701 116.05 663.301 129.95 679.701 129.95C688.801 129.95 694.101 126.35 699.601 122.15C700.601 121.35 701.501 121.45 702.101 121.85L705.201 124.65C706.001 125.25 705.801 126.75 705.101 127.45C698.001 134.35 689.101 137.55 679.801 137.55C659.001 137.55 642.201 120.95 642.201 100.15C642.201 79.35 659.001 62.55 679.801 62.55Z" fill="#FF0000" style="block-size:auto;caret-color:rgb(252, 165, 165);color:rgb(252, 165, 165);column-rule-color:rgb(252, 165, 165);cursor:pointer;d:path(&quot;M 679.801 62.55 C 690.301 62.55 697.901 66.15 705.001 72.25 C 705.801 73.05 705.901 74.35 705.101 75.15 L 702.301 77.9501 C 701.501 78.9501 700.601 78.8501 699.601 77.8501 C 694.201 73.1501 686.801 70.05 679.701 70.05 C 663.301 70.05 650.701 83.85 650.701 100.05 C 650.701 116.05 663.301 129.95 679.701 129.95 C 688.801 129.95 694.101 126.35 699.601 122.15 C 700.601 121.35 701.501 121.45 702.101 121.85 L 705.201 124.65 C 706.001 125.25 705.801 126.75 705.101 127.45 C 698.001 134.35 689.101 137.55 679.801 137.55 C 659.001 137.55 642.201 120.95 642.201 100.15 C 642.201 79.35 659.001 62.55 679.801 62.55 Z&quot;);display:inline;fill:rgb(255, 0, 0);height:auto;inline-size:auto;outline-color:rgb(252, 165, 165);overflow-clip-margin:0px;overflow-x:visible;overflow-y:visible;perspective-origin:0px 0px;text-decoration:none solid rgb(252, 165, 165);text-decoration-color:rgb(252, 165, 165);text-emphasis-color:rgb(252, 165, 165);transform-origin:0px 0px;vertical-align:baseline;width:auto;-webkit-text-fill-color:rgb(252, 165, 165);-webkit-text-stroke-color:rgb(252, 165, 165);"/>
    <path d="M742.494 64.05C742.694 63.25 743.494 62.55 744.394 62.55H746.094C746.794 62.55 747.694 63.05 747.894 63.65L768.494 121.05C768.694 121.05 768.794 121.05 768.994 121.05L789.294 63.65C789.494 63.05 790.294 62.55 791.094 62.55H792.794C793.594 62.55 794.494 63.15 794.694 64.05L808.094 134.05C808.394 135.55 807.794 136.55 806.194 136.55H801.994C801.194 136.55 800.294 135.85 800.094 135.05L790.794 81.4501C790.694 81.4501 790.494 81.4501 790.394 81.4501L771.194 136.45C770.994 137.05 770.094 137.55 769.394 137.55H767.494C766.894 137.55 765.894 137.05 765.694 136.45L746.294 81.4501C746.194 81.4501 745.994 81.4501 745.894 81.4501L736.794 135.05C736.694 135.75 735.794 136.55 734.894 136.55H730.694C729.094 136.55 728.494 135.55 728.794 134.05L742.494 64.05Z" fill="#FF0000" style="block-size:auto;caret-color:rgb(252, 165, 165);color:rgb(252, 165, 165);column-rule-color:rgb(252, 165, 165);cursor:pointer;d:path(&quot;M 742.494 64.05 C 742.694 63.25 743.494 62.55 744.394 62.55 H 746.094 C 746.794 62.55 747.694 63.05 747.894 63.65 L 768.494 121.05 C 768.694 121.05 768.794 121.05 768.994 121.05 L 789.294 63.65 C 789.494 63.05 790.294 62.55 791.094 62.55 H 792.794 C 793.594 62.55 794.494 63.15 794.694 64.05 L 808.094 134.05 C 808.394 135.55 807.794 136.55 806.194 136.55 H 801.994 C 801.194 136.55 800.294 135.85 800.094 135.05 L 790.794 81.4501 C 790.694 81.4501 790.494 81.4501 790.394 81.4501 L 771.194 136.45 C 770.994 137.05 770.094 137.55 769.394 137.55 H 767.494 C 766.894 137.55 765.894 137.05 765.694 136.45 L 746.294 81.4501 C 746.194 81.4501 745.994 81.4501 745.894 81.4501 L 736.794 135.05 C 736.694 135.75 735.794 136.55 734.894 136.55 H 730.694 C 729.094 136.55 728.494 135.55 728.794 134.05 L 742.494 64.05 Z&quot;);display:inline;fill:rgb(255, 0, 0);height:auto;inline-size:auto;outline-color:rgb(252, 165, 165);overflow-clip-margin:0px;overflow-x:visible;overflow-y:visible;perspective-origin:0px 0px;text-decoration:none solid rgb(252, 165, 165);text-decoration-color:rgb(252, 165, 165);text-emphasis-color:rgb(252, 165, 165);transform-origin:0px 0px;vertical-align:baseline;width:auto;-webkit-text-fill-color:rgb(252, 165, 165);-webkit-text-stroke-color:rgb(252, 165, 165);"/>
    <path d="M831.773 125.434C832.273 124.833 832.774 124.032 833.375 123.431C834.376 122.029 835.578 121.228 836.979 122.53C837.68 123.131 845.291 130.441 854.603 130.441C863.014 130.441 868.522 125.134 868.522 118.925C868.522 111.716 862.313 107.41 850.297 102.503C838.782 97.4967 831.973 92.7904 831.973 80.9747C831.973 73.8652 837.58 62.45 854.202 62.45C864.416 62.45 872.026 67.757 872.026 67.757C872.627 68.0574 873.929 69.3592 872.627 71.2617C872.226 71.8625 871.826 72.6636 871.325 73.2644C870.424 74.7664 869.323 75.1669 867.72 74.1656C867.02 73.765 860.411 69.3592 854.002 69.3592C842.988 69.3592 839.583 76.4686 839.583 80.8745C839.583 87.8839 844.89 91.8892 853.702 95.5941C867.821 101.302 876.833 106.609 876.833 118.725C876.833 129.539 866.519 137.45 854.303 137.45C841.986 137.45 833.675 130.24 832.273 129.039C831.572 128.238 830.471 127.437 831.773 125.434Z" fill="#FF0000" style="block-size:auto;caret-color:rgb(252, 165, 165);color:rgb(252, 165, 165);column-rule-color:rgb(252, 165, 165);cursor:pointer;d:path(&quot;M 831.773 125.434 C 832.273 124.833 832.774 124.032 833.375 123.431 C 834.376 122.029 835.578 121.228 836.979 122.53 C 837.68 123.131 845.291 130.441 854.603 130.441 C 863.014 130.441 868.522 125.134 868.522 118.925 C 868.522 111.716 862.313 107.41 850.297 102.503 C 838.782 97.4967 831.973 92.7904 831.973 80.9747 C 831.973 73.8652 837.58 62.45 854.202 62.45 C 864.416 62.45 872.026 67.757 872.026 67.757 C 872.627 68.0574 873.929 69.3592 872.627 71.2617 C 872.226 71.8625 871.826 72.6636 871.325 73.2644 C 870.424 74.7664 869.323 75.1669 867.72 74.1656 C 867.02 73.765 860.411 69.3592 854.002 69.3592 C 842.988 69.3592 839.583 76.4686 839.583 80.8745 C 839.583 87.8839 844.89 91.8892 853.702 95.5941 C 867.821 101.302 876.833 106.609 876.833 118.725 C 876.833 129.539 866.519 137.45 854.303 137.45 C 841.986 137.45 833.675 130.24 832.273 129.039 C 831.572 128.238 830.471 127.437 831.773 125.434 Z&quot;);display:inline;fill:rgb(255, 0, 0);height:auto;inline-size:auto;outline-color:rgb(252, 165, 165);overflow-clip-margin:0px;overflow-x:visible;overflow-y:visible;perspective-origin:0px 0px;text-decoration:none solid rgb(252, 165, 165);text-decoration-color:rgb(252, 165, 165);text-emphasis-color:rgb(252, 165, 165);transform-origin:0px 0px;vertical-align:baseline;width:auto;-webkit-text-fill-color:rgb(252, 165, 165);-webkit-text-stroke-color:rgb(252, 165, 165);"/>
    <path d="M160.428 139.13C160.138 138.744 158.978 138.647 158.399 139.13C149.22 147.053 136.08 151.691 123.326 151.691C94.8239 151.691 72.4084 129.082 71.6355 99.9033C72.4084 70.7246 94.8239 48.1159 123.326 48.1159C136.177 48.1159 149.317 52.8502 158.399 60.6763C158.978 61.1594 160.138 61.0627 160.428 60.6763L179.751 40.0966C180.138 39.7101 180.138 38.454 179.558 37.8743C173.085 31.5941 165.549 26.4734 157.433 22.6086L155.307 21.9323L155.693 4.34776C150.283 2.4154 144.679 0.869504 139.075 -0.0966797L130.669 15.0724L128.64 14.8792C123.133 14.3961 119.268 14.3961 113.761 14.8792L111.732 15.169L103.326 -6.13317e-05C97.7224 0.966122 92.1186 2.51202 86.6113 4.44438L86.9012 21.7391L85.0654 22.6086C80.7176 24.6376 76.3698 27.1497 72.2152 30.0482L70.5727 31.2077L55.6934 22.3188C51.249 25.9903 47.191 30.1449 43.5195 34.4927L52.4084 49.3719L51.249 51.0144C49.6065 53.3333 48.0606 55.8453 46.3215 59.0338L44.9688 61.6424C44.5823 62.4154 44.1959 63.0917 43.8094 63.8647L42.9398 65.7004L25.6451 65.5072C23.7128 70.9178 22.1669 76.5217 21.2007 82.1255L36.3698 90.5313L36.1765 92.5603C35.8867 95.3623 35.7901 97.6811 35.7901 99.9999C35.7901 102.319 35.8867 104.638 36.1765 107.44L36.3698 109.469L21.2007 117.874C22.1669 123.478 23.7128 129.082 25.6451 134.493L42.9398 134.203L43.8094 136.039C44.1959 136.812 44.5823 137.488 44.9688 138.261L46.3215 140.87C48.0606 144.058 49.6065 146.57 51.249 148.889L52.4084 150.531L43.5195 165.411C47.191 169.758 51.3456 173.913 55.6934 177.584L70.5727 168.696L72.2152 169.855C76.3698 172.754 80.7176 175.266 85.0654 177.295L86.9012 178.164L86.6113 195.555C92.0219 197.488 97.6258 199.034 103.23 200L111.635 184.831L113.664 185.024C119.172 185.507 123.036 185.507 128.544 185.024L130.573 184.831L138.978 200C144.582 199.034 150.186 197.488 155.597 195.555L155.21 177.971L157.336 177.295C165.452 173.527 172.988 168.309 179.462 162.029C180.041 161.449 180.041 160.193 179.655 159.807L160.428 139.13Z" fill="#FF0000" style="block-size:auto;caret-color:rgb(252, 165, 165);color:rgb(252, 165, 165);column-rule-color:rgb(252, 165, 165);cursor:pointer;d:path(&quot;M 160.428 139.13 C 160.138 138.744 158.978 138.647 158.399 139.13 C 149.22 147.053 136.08 151.691 123.326 151.691 C 94.8239 151.691 72.4084 129.082 71.6355 99.9033 C 72.4084 70.7246 94.8239 48.1159 123.326 48.1159 C 136.177 48.1159 149.317 52.8502 158.399 60.6763 C 158.978 61.1594 160.138 61.0627 160.428 60.6763 L 179.751 40.0966 C 180.138 39.7101 180.138 38.454 179.558 37.8743 C 173.085 31.5941 165.549 26.4734 157.433 22.6086 L 155.307 21.9323 L 155.693 4.34776 C 150.283 2.4154 144.679 0.869504 139.075 -0.0966797 L 130.669 15.0724 L 128.64 14.8792 C 123.133 14.3961 119.268 14.3961 113.761 14.8792 L 111.732 15.169 L 103.326 -0.0000613317 C 97.7224 0.966122 92.1186 2.51202 86.6113 4.44438 L 86.9012 21.7391 L 85.0654 22.6086 C 80.7176 24.6376 76.3698 27.1497 72.2152 30.0482 L 70.5727 31.2077 L 55.6934 22.3188 C 51.249 25.9903 47.191 30.1449 43.5195 34.4927 L 52.4084 49.3719 L 51.249 51.0144 C 49.6065 53.3333 48.0606 55.8453 46.3215 59.0338 L 44.9688 61.6424 C 44.5823 62.4154 44.1959 63.0917 43.8094 63.8647 L 42.9398 65.7004 L 25.6451 65.5072 C 23.7128 70.9178 22.1669 76.5217 21.2007 82.1255 L 36.3698 90.5313 L 36.1765 92.5603 C 35.8867 95.3623 35.7901 97.6811 35.7901 99.9999 C 35.7901 102.319 35.8867 104.638 36.1765 107.44 L 36.3698 109.469 L 21.2007 117.874 C 22.1669 123.478 23.7128 129.082 25.6451 134.493 L 42.9398 134.203 L 43.8094 136.039 C 44.1959 136.812 44.5823 137.488 44.9688 138.261 L 46.3215 140.87 C 48.0606 144.058 49.6065 146.57 51.249 148.889 L 52.4084 150.531 L 43.5195 165.411 C 47.191 169.758 51.3456 173.913 55.6934 177.584 L 70.5727 168.696 L 72.2152 169.855 C 76.3698 172.754 80.7176 175.266 85.0654 177.295 L 86.9012 178.164 L 86.6113 195.555 C 92.0219 197.488 97.6258 199.034 103.23 200 L 111.635 184.831 L 113.664 185.024 C 119.172 185.507 123.036 185.507 128.544 185.024 L 130.573 184.831 L 138.978 200 C 144.582 199.034 150.186 197.488 155.597 195.555 L 155.21 177.971 L 157.336 177.295 C 165.452 173.527 172.988 168.309 179.462 162.029 C 180.041 161.449 180.041 160.193 179.655 159.807 L 160.428 139.13 Z&quot;);display:inline;fill:rgb(255, 0, 0);height:auto;inline-size:auto;outline-color:rgb(252, 165, 165);overflow-clip-margin:0px;overflow-x:visible;overflow-y:visible;perspective-origin:0px 0px;text-decoration:none solid rgb(252, 165, 165);text-decoration-color:rgb(252, 165, 165);text-emphasis-color:rgb(252, 165, 165);transform-origin:0px 0px;vertical-align:baseline;width:auto;-webkit-text-fill-color:rgb(252, 165, 165);-webkit-text-stroke-color:rgb(252, 165, 165);"/>
  </svg>